<?xml version="1.0" encoding="utf-8"?>
<!-- Generator: Adobe Illustrator 27.5.0, SVG Export Plug-In . SVG Version: 6.00 Build 0)  -->
<svg version="1.1" xmlns="http://www.w3.org/2000/svg" xmlns:xlink="http://www.w3.org/1999/xlink" x="0px" y="0px"
	 viewBox="0 0 750 500" style="enable-background:new 0 0 750 500;" xml:space="preserve">
<g id="BACKGROUND">
	<g id="layer1">
		<ellipse id="ellipse393761" style="fill:#FAD3B4;" cx="105.18" cy="393.868" rx="78.658" ry="20.856"/>
		<ellipse id="ellipse393763" style="fill:#FAD3B4;" cx="279.665" cy="393.868" rx="78.658" ry="20.856"/>
		<ellipse id="ellipse393765" style="fill:#FAD3B4;" cx="442.033" cy="393.868" rx="78.658" ry="20.856"/>
		<ellipse id="ellipse393767" style="fill:#FAD3B4;" cx="644.051" cy="393.868" rx="78.658" ry="20.856"/>
	</g>
</g>
<g id="OBJECTS">
	<g id="layer4">
		<g id="g393875" transform="matrix(1.3820107,0,0,1.3820107,-42.931991,22.228115)">
			<g id="g1170">
				<rect id="rect393769" x="92.056" y="221.969" style="fill:#8F364F;" width="4.595" height="39.913"/>
				<path id="rect393773" style="fill:#4D1625;" d="M94.683,217.986h38.327c1.728,0,3.128,1.401,3.128,3.128l0,0
					c0,1.728-1.401,3.128-3.128,3.128H94.683c-1.728,0-3.128-1.401-3.128-3.128l0,0C91.555,219.387,92.956,217.986,94.683,217.986z"
					/>
				<rect id="rect393777" x="69.733" y="221.969" style="fill:#8F364F;" width="4.595" height="46.556"/>
				<rect id="rect393779" x="99.475" y="221.969" style="fill:#8F364F;" width="4.595" height="46.556"/>
				<rect id="rect393783" x="65.201" y="165.594" style="fill:#8F364F;" width="4.594" height="57.186"/>
				<path id="rect393787" style="fill:#672437;" d="M61.528,153.21h38.439c1.728,0,3.128,1.401,3.128,3.128v13.174
					c0,1.728-1.401,3.128-3.128,3.128H61.528c-1.728,0-3.128-1.4-3.128-3.128v-13.174C58.4,154.611,59.801,153.21,61.528,153.21z"/>
				<path id="rect393861" style="fill:#6C1E34;" d="M66.179,217.986h38.327c1.728,0,3.128,1.401,3.128,3.128l0,0
					c0,1.728-1.401,3.128-3.128,3.128H66.179c-1.728,0-3.128-1.401-3.128-3.128l0,0C63.051,219.387,64.452,217.986,66.179,217.986z"
					/>
			</g>
			<g id="g1170_00000053513723559538276260000017692260719393147010_">
				
					<rect id="rect393779_00000039132191882086226050000016235078425956521902_" x="267.187" y="222.252" style="fill:#8F364F;" width="5.393" height="54.648"/>
				
					<rect id="rect393769_00000135655379230718612960000000531790921482501272_" x="252.867" y="222.252" style="fill:#8F364F;" width="5.394" height="46.851"/>
				
					<rect id="rect393769_00000057835778347428884120000018286595960748628869_" x="222.125" y="222.252" style="fill:#8F364F;" width="5.394" height="46.851"/>
				<path id="rect393773_00000108996693234837662630000006228818900028231586_" style="fill:#4D1625;" d="M234.907,217.577h44.989
					c2.028,0,3.672,1.644,3.672,3.672v0c0,2.028-1.644,3.672-3.672,3.672h-44.989c-2.028,0-3.672-1.644-3.672-3.672v0
					C231.235,219.221,232.879,217.577,234.907,217.577z"/>
				
					<rect id="rect393777_00000010274529520324125510000006449127096462398381_" x="205.62" y="222.252" style="fill:#8F364F;" width="5.393" height="54.648"/>
				
					<rect id="rect393783_00000080915015638399906420000017142783094360013468_" x="207.315" y="156.078" style="fill:#8F364F;" width="5.392" height="67.126"/>
				
					<rect id="rect393783_00000141418818693687051170000005932717324407616180_" x="261.113" y="156.078" style="fill:#8F364F;" width="5.392" height="67.126"/>
				<path id="rect393787_00000144301031480329961550000006860025638994072231_" style="fill:#672437;" d="M202.144,141.541h69.036
					c3.103,0,5.618,1.644,5.618,3.672v15.463c0,2.028-2.515,3.672-5.618,3.672h-69.036c-3.103,0-5.618-1.644-5.618-3.672v-15.463
					C196.526,143.185,199.041,141.541,202.144,141.541z"/>
				<path id="rect393861_00000117641948584867785770000000039510160763348644_" style="fill:#6C1E34;" d="M201.449,217.577h44.989
					c2.028,0,3.672,1.644,3.672,3.672v0c0,2.028-1.644,3.672-3.672,3.672h-44.989c-2.028,0-3.672-1.644-3.672-3.672v0
					C197.777,219.221,199.421,217.577,201.449,217.577z"/>
			</g>
			<g id="g1153">
				<path id="path393789" style="fill:#46126D;" d="M79.391,186.808l34.533,3.998c6.562,0.76,11.453,7.057,11.155,14.363
					l-0.001,0.033c-0.297,7.278-5.707,13.01-12.281,13.01H79.474c-8.433,0-15.269-7.577-15.269-16.924
					c0.171-8.251,6.344-14.785,13.788-14.596C78.46,186.704,78.927,186.742,79.391,186.808L79.391,186.808z"/>
				<path id="path393791" style="fill:#271237;" d="M98.841,195.32l15.111-1.476c5.233-0.511,9.81,4.307,10.225,10.763
					c0.02,0.308,0.03,0.617,0.03,0.926v0.129c0,7.009-4.605,12.69-10.286,12.69H98.791c-5.013,0-9.077-5.013-9.077-11.198
					c0-0.016,0-0.033,0-0.049C89.81,200.847,93.778,195.724,98.841,195.32z"/>
				<path id="path393843" style="fill:#DF9485;" d="M113.209,193.916l-14.369,1.405c-2.053,0.181-4.006,1.159-5.582,2.793
					c-0.022,0.12-0.037,0.245-0.04,0.375c-0.018,5.266,13.026,15.131,18.169,16.264h12.917l13.983-17.052L113.209,193.916z"/>
				<path id="path393845" style="fill:#F5BF9B;" d="M94.888,196.753c-3.115,2.043-5.093,6-5.175,10.351
					c-0.011,5.267,2.955,9.832,7.125,10.965h14.583l13.983-17.052L94.888,196.753z"/>
				<path id="path393847" style="fill:#DF9485;" d="M138.87,197.905l0.706,0.212c4.804,1.445,7.527,6.512,6.081,11.316
					c-0.07,0.232-0.149,0.461-0.237,0.687l-14.783,37.85c-1.45,3.713-5.509,5.689-9.326,4.54l-0.047-0.014
					c-3.764-1.133-5.944-5.053-4.921-8.848l10.54-39.078c1.375-5.099,6.623-8.117,11.722-6.742
					C138.693,197.854,138.782,197.879,138.87,197.905z"/>
				<path id="path393849" style="fill:#281039;" d="M116.337,245.961l16.491,3.111c2.14,0.404,3.69,2.273,3.69,4.451v0.412
					c0,2.074-1.681,3.755-3.755,3.755l0,0h-16.36c-2.074,0-3.755-1.681-3.755-3.755l0,0v-4.915c0-1.719,1.394-3.113,3.113-3.113
					C115.953,245.907,116.146,245.925,116.337,245.961L116.337,245.961z"/>
				<path id="path393851" style="fill:#F5BF9B;" d="M125.987,201.221l0.706,0.212c4.804,1.446,7.527,6.512,6.081,11.316
					c-0.07,0.232-0.149,0.462-0.237,0.687l-14.783,37.85c-1.45,3.713-5.509,5.689-9.326,4.541l-0.047-0.014
					c-3.764-1.132-5.944-5.053-4.921-8.848l10.54-39.078c1.375-5.099,6.623-8.117,11.722-6.742
					C125.81,201.17,125.899,201.195,125.987,201.221z"/>
				<path id="path393853" style="fill:#46126D;" d="M105.519,245.99l16.491,3.111c2.14,0.404,3.69,2.273,3.69,4.451v0.412
					c0,2.074-1.681,3.755-3.755,3.755l0,0h-16.36c-2.074,0-3.755-1.681-3.755-3.755l0,0v-4.915c0-1.719,1.394-3.113,3.113-3.113
					C105.136,245.937,105.329,245.955,105.519,245.99L105.519,245.99z"/>
			</g>
			<g id="g1349">
				<path id="path393793" style="fill:#320058;" d="M92.198,161.778c-1.289-0.015-2.541,0.661-3.215,1.871l-12.292,22.068
					l-0.31,0.557c-0.412,0.74-0.539,1.558-0.418,2.331c0.043,0.105,0.093,0.209,0.151,0.312c0.079,0.134,0.17,0.267,0.275,0.398
					c0.104,0.132,0.221,0.262,0.35,0.39c0.129,0.128,0.27,0.253,0.422,0.377c0.153,0.123,0.318,0.244,0.494,0.362
					c0.176,0.118,0.363,0.233,0.56,0.345c0.198,0.112,0.406,0.22,0.625,0.326c0.219,0.105,0.447,0.207,0.685,0.305
					c0.238,0.097,0.486,0.191,0.742,0.28c0.256,0.09,0.52,0.176,0.791,0.258c0.273,0.081,0.553,0.157,0.841,0.229
					c0.287,0.072,0.581,0.14,0.88,0.203c0.3,0.063,0.605,0.121,0.916,0.174c0.312,0.053,0.628,0.101,0.949,0.144
					c0.32,0.042,0.644,0.08,0.971,0.112c0.327,0.032,0.658,0.06,0.99,0.081c0.333,0.022,0.668,0.038,1.003,0.049
					c0.336,0.01,0.672,0.015,1.009,0.015c0.336,0,0.672-0.005,1.007-0.015c0.336-0.011,0.671-0.027,1.004-0.049
					c0.333-0.022,0.663-0.049,0.99-0.081c0.327-0.032,0.651-0.069,0.971-0.112c0.321-0.043,0.637-0.091,0.949-0.144
					c0.311-0.053,0.617-0.111,0.916-0.174c0.3-0.063,0.594-0.13,0.88-0.203c0.287-0.072,0.568-0.148,0.841-0.229
					c0.273-0.081,0.537-0.167,0.793-0.258c0.256-0.089,0.503-0.183,0.74-0.28c0.238-0.098,0.467-0.2,0.685-0.305
					c0.219-0.105,0.427-0.214,0.625-0.326c0.198-0.112,0.386-0.227,0.562-0.345c0.176-0.118,0.34-0.238,0.492-0.362
					c0.153-0.123,0.294-0.249,0.422-0.377c0.084-0.086,0.162-0.173,0.235-0.261l0.659-1.181l7.524-13.511
					c0.98-1.76,0.353-3.964-1.407-4.944l-13.583-7.566C93.377,161.933,92.784,161.784,92.198,161.778L92.198,161.778z"/>
				<path id="rect393795" style="fill:#F28769;" d="M114.097,146.835L114.097,146.835c3.076-0.833,6.246,0.985,7.079,4.061
					l6.893,25.446c0.833,3.076-0.985,6.246-4.061,7.079l0,0c-3.076,0.833-6.246-0.985-7.079-4.061l-6.894-25.446
					C109.202,150.838,111.021,147.669,114.097,146.835z"/>
				<path id="rect393797" style="fill:#511C79;" d="M95.512,144.671h11.583c6.477,0,11.728,5.251,11.728,11.728v8.047
					c0,6.477-5.251,11.728-11.728,11.728H95.512c-6.477,0-11.728-5.251-11.728-11.728v-8.047
					C83.784,149.922,89.034,144.671,95.512,144.671z"/>
				<path id="path393799" style="fill:#F5BF9B;" d="M95.511,144.671c-1.576,0-3.077,0.31-4.448,0.869v6.286
					c0,3.197,2.574,5.771,5.771,5.771h10.482c3.197,0,5.771-2.574,5.771-5.771v-5.517c-1.752-1.04-3.8-1.638-5.993-1.638H95.511z"/>
				<path id="rect393801" style="fill:#E18F7E;" d="M102.321,125.823L102.321,125.823c3.468,0,6.28,2.811,6.28,6.28v13.585
					c0,3.468-2.812,6.28-6.28,6.28l0,0c-3.468,0-6.28-2.812-6.28-6.28v-13.585C96.041,128.635,98.853,125.823,102.321,125.823z"/>
				
					<ellipse id="circle393827" transform="matrix(0.7071 -0.7071 0.7071 0.7071 -99.3202 114.289)" style="fill:#FFC6AE;" cx="88.299" cy="177.035" rx="10.708" ry="10.708"/>
				<path id="rect393829" style="fill:#E79C7E;" d="M84.632,145.976L84.632,145.976c3.144-0.522,6.116,1.603,6.638,4.747
					l4.319,26.007c0.522,3.144-1.603,6.116-4.748,6.638l0,0c-3.144,0.522-6.116-1.603-6.638-4.748l-4.319-26.007
					C79.362,149.47,81.488,146.498,84.632,145.976z"/>
				<path id="rect393831" style="fill:#F7A186;" d="M128.139,177.906L128.139,177.906c0,3.187-2.584,5.771-5.771,5.771H96.004
					c-3.187,0-5.771-2.584-5.771-5.771l0,0c0-3.187,2.584-5.771,5.771-5.771h26.363
					C125.555,172.135,128.139,174.719,128.139,177.906z"/>
				<path id="rect393833" style="fill:#F5BF9B;" d="M86.512,145.961L86.512,145.961c3.169-0.343,6.015,1.948,6.358,5.117
					l2.836,26.21c0.343,3.169-1.948,6.015-5.117,6.358l0,0c-3.169,0.343-6.015-1.948-6.358-5.117l-2.836-26.21
					C81.053,149.151,83.344,146.304,86.512,145.961z"/>
				<g id="g393839" transform="rotate(17.894555,44.182978,25.153544)">
					<path id="rect393835" style="fill:#1D3041;" d="M119.153,122.126l18.688,0c0.37,0,0.671,0.3,0.671,0.671l0,0.925
						c0,0.37-0.3,0.671-0.671,0.671l-18.689,0c-0.37,0-0.671-0.3-0.671-0.671l0-0.925
						C118.483,122.426,118.783,122.126,119.153,122.126z"/>
					<path id="path393837" style="fill:#1D3041;" d="M140.128,120.046c-1.78,0-3.211,1.434-3.211,3.213
						c0,1.78,1.432,3.211,3.211,3.211l4.26,0l0-1.102l-3.471,0c-0.222,0-0.401-0.179-0.401-0.401c0-0.222,0.179-0.401,0.401-0.401
						l3.471,0l0-0.869l-3.471,0c-0.222,0-0.401-0.179-0.401-0.401c0-0.222,0.179-0.401,0.401-0.401l3.471,0l0-0.869l-3.709,0
						c-0.222,0-0.401-0.179-0.401-0.401c0-0.222,0.179-0.401,0.401-0.401l3.709,0l0-1.176L140.128,120.046z"/>
				</g>
				
					<ellipse id="circle393841" transform="matrix(0.7071 -0.7071 0.7071 0.7071 -76.0434 104.1629)" style="fill:#FFC6AE;" cx="87.714" cy="143.874" rx="10.708" ry="10.708"/>
				<path id="rect393871" style="fill:#FFE0D3;" d="M84.343,154.541L84.343,154.541c0.634-0.061,1.198,0.403,1.259,1.037
					l1.997,20.698c0.061,0.634-0.403,1.198-1.037,1.259l0,0c-0.634,0.061-1.198-0.403-1.259-1.037l-1.997-20.698
					C83.245,155.165,83.709,154.602,84.343,154.541z"/>
				<path id="rect393873" style="fill:#FFE0D3;" d="M119.639,173.999L119.639,173.999c0,0.637-0.517,1.154-1.154,1.153
					l-20.794-0.001c-0.637,0-1.154-0.517-1.153-1.154l0,0c0-0.637,0.516-1.154,1.154-1.154l20.794,0.001
					C119.123,172.845,119.639,173.362,119.639,173.999z"/>
			</g>
			<g id="g1134">
				<path id="path393803" style="fill:#CC1B6C;" d="M81.771,86.882c-1.099,0.047-2.14,0.504-2.918,1.282l-2.406,2.407l-2.405,2.405
					c-1.715,1.714-1.716,4.493-0.002,6.208c0.132,0.132,0.272,0.255,0.419,0.369l4.387,3.393c0.949,0.735,2.108,1.148,3.308,1.181
					c-0.823,2.034-1.276,4.259-1.276,6.595v1.541c0,1.426,0.17,2.811,0.489,4.137c-1.525,1-2.528,2.723-2.528,4.69v2.53
					c0,3.105,2.499,5.604,5.604,5.604h7.653c0.462,0,0.91-0.057,1.339-0.161c1.569,0.458,3.229,0.706,4.949,0.706h2.846
					c6.392,0,11.961-3.392,15.017-8.481v21.231c3.915-1.852,6.612-5.831,6.612-10.465v-24.987c0-6.413-5.163-11.576-11.576-11.576
					h-1.39c-2.552-1.45-5.506-2.276-8.662-2.276h-2.846c-3.079,0-5.966,0.787-8.475,2.172c-0.165-0.881-0.537-1.71-1.085-2.42
					l-3.395-4.387C84.557,87.455,83.193,86.821,81.771,86.882L81.771,86.882z"/>
				<path id="path393805" style="fill:#8C124A;" d="M112.732,100.119c0,0-1.724,5.409-7.256,5.409s-6.063,1.557-7.119,5.498
					c-1.056,3.942-1.627,5.423-9.395,5.423h-7.666c-1.485,1.006-2.458,2.705-2.458,4.641v2.53c0,3.105,2.499,5.604,5.605,5.604
					h7.653c0.462,0,0.91-0.057,1.339-0.161c1.569,0.458,3.229,0.706,4.949,0.706h2.846c6.392,0,11.961-3.392,15.017-8.481v21.231
					c0.927-0.438,1.784-0.998,2.554-1.655v-29.374C118.8,101.946,112.732,100.119,112.732,100.119z"/>
				<path id="rect393807" style="fill:#F5BF9B;" d="M88.683,118.136h5.564c2.36,0,4.273,1.913,4.273,4.273l0,0
					c0,2.36-1.913,4.273-4.273,4.273h-5.564c-2.36,0-4.273-1.913-4.273-4.273l0,0C84.41,120.049,86.323,118.136,88.683,118.136z"/>
				<path id="path393809" style="fill:#F5BF9B;" d="M113.41,101.838c-0.94,2.489-3.333,4.253-6.159,4.253h-1.727
					c-2.797,0-5.065,2.268-5.065,5.065v0.223c0,3.743-3.013,6.758-6.756,6.758H90.14v6.716c0,8.017,6.198,14.469,13.896,14.469
					c7.697,0,13.894-6.453,13.894-14.469v-12.317C117.929,108.289,116.19,104.481,113.41,101.838L113.41,101.838z"/>
				<path id="rect393811" style="fill:#5A1534;" d="M102.11,119.325L102.11,119.325c0.546,0,0.988,0.442,0.988,0.988v2.525
					c0,0.546-0.442,0.988-0.988,0.988l0,0c-0.546,0-0.988-0.442-0.988-0.988v-2.525C101.122,119.767,101.565,119.325,102.11,119.325
					z"/>
				<path id="rect393813" style="fill:#5A1534;" d="M115.206,119.325L115.206,119.325c0.546,0,0.988,0.442,0.988,0.988v2.525
					c0,0.546-0.442,0.988-0.988,0.988h0c-0.546,0-0.988-0.442-0.988-0.988v-2.525C114.218,119.767,114.661,119.325,115.206,119.325z
					"/>
				<path id="rect393815" style="fill:#B1195F;" d="M99.855,114.288h2.66c0.913,0,1.653,0.74,1.653,1.653l0,0
					c0,0.913-0.74,1.653-1.653,1.653h-2.66c-0.913,0-1.653-0.74-1.653-1.653l0,0C98.202,115.028,98.942,114.288,99.855,114.288z"/>
				<path id="rect393817" style="fill:#B1195F;" d="M113.233,114.288h2.66c0.913,0,1.653,0.74,1.653,1.653l0,0
					c0,0.913-0.74,1.653-1.653,1.653h-2.66c-0.913,0-1.653-0.74-1.653-1.653l0,0C111.58,115.028,112.32,114.288,113.233,114.288z"/>
				<g id="g393823" transform="translate(0,1.1321555)">
					<path id="circle393819" style="fill:#95275A;" d="M108.867,125.627c0.315,0,0.57,0.255,0.57,0.57c0,0.315-0.255,0.57-0.57,0.57
						c-0.315,0-0.57-0.255-0.57-0.57C108.298,125.882,108.553,125.627,108.867,125.627z"/>
					<path id="circle393821" style="fill:#95275A;" d="M111.954,125.627c0.315,0,0.57,0.255,0.57,0.57c0,0.315-0.255,0.57-0.57,0.57
						c-0.315,0-0.57-0.255-0.57-0.57C111.384,125.882,111.639,125.627,111.954,125.627z"/>
				</g>
				<path id="path393825" style="fill:#5D1636;" d="M102.839,130.042v0.168c0,2.181,1.757,3.936,3.938,3.936h2.24
					c2.181,0,3.936-1.755,3.936-3.936v-0.168H102.839z"/>
				<path id="path393869" style="fill:#8C124A;" d="M73.599,93.507c-1.391,1.917-1.011,4.592,0.86,6.046l4.387,3.393
					c0.911,0.7,2.013,1.107,3.16,1.166c1.465-2.285,4.362-5.019,4.362-5.019s-3.568,1.91-5.637,0.873
					C79.176,99.186,75.387,95.361,73.599,93.507L73.599,93.507z"/>
			</g>
			<g id="g1161">
				<path id="rect393855" style="fill:#671549;" d="M126.817,186.53h1.756c2.139,0,3.873,1.734,3.873,3.873v76.467
					c0,2.139-1.734,3.873-3.873,3.873h-1.756c-2.139,0-3.873-1.734-3.873-3.873v-76.467
					C122.944,188.264,124.678,186.53,126.817,186.53z"/>
				<path id="rect393857" style="fill:#8D1B63;" d="M65.73,183.418h119.963c2.139,0,3.873,1.734,3.873,3.873l0,0
					c0,2.139-1.734,3.873-3.873,3.873H65.73c-2.139,0-3.873-1.734-3.873-3.873l0,0C61.857,185.152,63.591,183.418,65.73,183.418z"/>
				<path id="rect393859" style="fill:#8D1B63;" d="M119.86,264.682h15.67c2.139,0,3.873,1.734,3.873,3.873l0,0
					c0,2.139-1.734,3.873-3.873,3.873h-15.67c-2.139,0-3.873-1.734-3.873-3.873l0,0C115.987,266.416,117.721,264.682,119.86,264.682
					z"/>
				<path id="path393863" style="fill:#357783;" d="M130.974,173.185c0.791,5.685,5.647,10.035,11.557,10.035h5.235
					c5.91,0,10.768-4.35,11.559-10.035H130.974z"/>
				<path id="path393865" style="fill:#5EB3C3;" d="M164.069,158.517h4.604c0,1.941,1.573,3.514,3.514,3.514l0,0v17.632
					c0,2.015-1.634,3.649-3.649,3.649l0,0h-4.336c-2.015,0-3.649-1.634-3.649-3.649l0,0v-17.632
					C162.495,162.032,164.069,160.458,164.069,158.517C164.069,158.517,164.069,158.517,164.069,158.517z"/>
				<path id="rect393867" style="fill:#511C79;" d="M164.46,155.703h4.05c0.596,0,1.078,0.483,1.078,1.078v2.343
					c0,0.596-0.483,1.078-1.078,1.078h-4.05c-0.596,0-1.078-0.483-1.078-1.078v-2.343
					C163.381,156.186,163.864,155.703,164.46,155.703z"/>
			</g>
		</g>
	</g>
	<g id="layer5">
		<g id="g1615">
			<path id="rect393877" style="fill:#C25338;" d="M340.49,220.942h0.021c8.185,0,14.821,6.636,14.821,14.821v29.97
				c0,8.185-6.635,14.821-14.821,14.821h-0.021c-8.185,0-14.821-6.635-14.821-14.821v-29.97
				C325.669,227.577,332.304,220.942,340.49,220.942z"/>
			<path id="rect393879" style="fill:#C25338;" d="M240.345,217.457l-0.02-0.006c-7.855-2.303-16.089,2.198-18.392,10.053
				l-8.431,28.759c-2.303,7.855,2.198,16.089,10.053,18.392l0.02,0.006c7.855,2.303,16.089-2.198,18.392-10.053l8.431-28.76
				C252.701,227.994,248.2,219.76,240.345,217.457z"/>
			<path id="path393881" style="fill:#9ED7DC;" d="M328.02,192.427h15.874c8.039,0,14.556,6.517,14.556,14.556l0,0v27.878
				c0,1.626-1.318,2.944-2.944,2.944l0,0h-37.703v-35.161C317.803,197.001,322.377,192.427,328.02,192.427L328.02,192.427z"/>
			<path id="path393883" style="fill:#9ED7DC;" d="M263.192,193.576l-15.233-4.466c-7.714-2.262-15.801,2.159-18.063,9.873l0,0
				l-7.843,26.752c-0.457,1.56,0.437,3.195,1.997,3.653l36.18,10.607l9.892-33.741C271.709,200.839,268.606,195.163,263.192,193.576
				C263.192,193.576,263.192,193.576,263.192,193.576L263.192,193.576z"/>
			<path id="rect393885" style="fill:#3285A8;" d="M285.696,224.603h7.021c14.801,0,26.799,11.998,26.799,26.799v44.936
				c0,14.801-11.998,26.799-26.799,26.799h-7.021c-14.801,0-26.799-11.999-26.799-26.799v-44.936
				C258.897,236.601,270.895,224.603,285.696,224.603z"/>
			<path id="rect393887" style="fill:#5EB3C3;" d="M264.421,188.156h49.572c10.759,0,19.481,8.722,19.481,19.481v25.234
				c0,10.759-8.722,19.481-19.481,19.481h-49.572c-10.759,0-19.481-8.722-19.481-19.481v-25.234
				C244.94,196.878,253.662,188.156,264.421,188.156z"/>
			<path id="path393889" style="fill:#ADCACF;" d="M270.064,188.156c0.802,9.888,9.033,17.611,19.134,17.611
				s18.33-7.723,19.132-17.611H270.064z"/>
			<path id="rect393891" style="fill:#B85737;" d="M289.198,155.653L289.198,155.653c9.15,0,16.569,7.418,16.569,16.569v13.292
				c0,9.151-7.418,16.569-16.569,16.569l0,0c-9.151,0-16.569-7.418-16.569-16.569v-13.292
				C272.629,163.071,280.047,155.653,289.198,155.653z"/>
			<path id="path393919" style="fill:#DF8A58;" d="M301.5,247.737l0.839-1.731c2.992-6.178,10.326-8.895,16.621-6.158l28.783,12.515
				c7.54,3.279,10.995,12.049,7.716,19.59c-0.081,0.186-0.166,0.37-0.254,0.553l-0.136,0.281c-3.584,7.4-12.488,10.493-19.889,6.91
				c-0.183-0.089-0.363-0.181-0.542-0.276l-27.664-14.824C300.923,261.353,298.508,253.915,301.5,247.737L301.5,247.737z"/>
			<path id="path393921" style="fill:#DF8A58;" d="M236.925,203.187l-1.885-0.28c-6.755-1.003-13.074,3.573-14.229,10.304
				l-7.617,44.389c-1.416,8.254,4.127,16.093,12.381,17.51c0.112,0.019,0.225,0.037,0.337,0.054l0.288,0.043
				c8.109,1.204,15.659-4.394,16.863-12.503c0.032-0.215,0.059-0.43,0.081-0.645l4.662-44.848
				C248.517,210.377,243.72,204.196,236.925,203.187L236.925,203.187z"/>
			<path id="rect393923" style="opacity:0.3272;fill:#FFDCC8;enable-background:new    ;" d="M343.424,277.615L343.424,277.615
				c-0.693,1.165-2.199,1.548-3.364,0.856l-33.238-19.755c-1.165-0.693-1.548-2.199-0.856-3.364l0,0
				c0.693-1.165,2.199-1.548,3.364-0.856l33.238,19.755C343.733,274.944,344.116,276.449,343.424,277.615z"/>
			<circle id="circle393925" style="fill:#F2A870;" cx="298.928" cy="242.053" r="20.203"/>
			<path id="rect393943" style="fill:#E68654;" d="M239.63,176.152h10.105c4.214,0,7.63,3.416,7.63,7.63v14.316
				c0,4.214-3.416,7.63-7.63,7.63H239.63c-4.214,0-7.63-3.416-7.63-7.63v-14.316C232,179.568,235.416,176.152,239.63,176.152z"/>
			<g id="g393949" transform="matrix(1.044019,-0.68279888,0.68279888,1.044019,-2.5671342,51.024326)">
				<path id="rect393945" style="fill:#4E5E67;" d="M100.122,197.994l18.689,0c0.37,0,0.671,0.3,0.671,0.671l0,0.924
					c0,0.37-0.3,0.671-0.671,0.671h-18.689c-0.37,0-0.671-0.3-0.671-0.671l0-0.925C99.452,198.295,99.752,197.994,100.122,197.994z"
					/>
				<path id="path393947" style="fill:#4E5E67;" d="M121.097,195.914c-1.78,0-3.211,1.434-3.211,3.213
					c0,1.78,1.432,3.211,3.211,3.211l4.26,0l0-1.102l-3.471,0c-0.222,0-0.401-0.179-0.401-0.401c0-0.223,0.179-0.401,0.401-0.402
					l3.471,0l0-0.869l-3.471,0c-0.222,0-0.401-0.179-0.401-0.401c0-0.222,0.179-0.401,0.401-0.401l3.471,0l0-0.869l-3.709,0
					c-0.222,0-0.401-0.179-0.401-0.401c0-0.222,0.179-0.401,0.401-0.401l3.709,0l0-1.176L121.097,195.914z"/>
			</g>
			<path id="rect393951" style="fill:#F2A870;" d="M230.182,176.175h11.92c5.332,0,9.655,4.323,9.655,9.655v18.116
				c0,5.332-4.323,9.655-9.655,9.655h-11.92c-5.332,0-9.655-4.323-9.655-9.655V185.83
				C220.527,180.498,224.85,176.175,230.182,176.175z"/>
			<path id="rect393973" style="opacity:0.3272;fill:#FFDCC8;enable-background:new    ;" d="M225.77,216.406L225.77,216.406
				c1.335,0.237,2.225,1.511,1.988,2.846l-6.754,38.071c-0.237,1.335-1.511,2.225-2.846,1.988l0,0
				c-1.335-0.237-2.225-1.511-1.988-2.845l6.755-38.071C223.161,217.059,224.435,216.169,225.77,216.406z"/>
			<g id="g1626">
				<g id="g393931" transform="matrix(1.0803437,0.6237367,-0.6237367,1.0803437,-3.3467188,-26.761841)">
					<path id="path393927" style="fill:#1C5442;" d="M307.754,36.814c-2.982,0-5.4,2.418-5.4,5.4c0.001,0.944,0.25,1.867,0.716,2.68
						c0.182,0.317,0.182,0.788,0,1.105c-0.466,0.812-0.715,1.736-0.716,2.68c0.001,0.944,0.25,1.867,0.716,2.68
						c0.182,0.317,0.182,0.788,0,1.105c-0.466,0.813-0.715,1.737-0.716,2.682c0.001,2.982,2.418,5.398,5.4,5.398
						c2.982,0,5.399-2.416,5.4-5.398c0-0.945-0.248-1.87-0.714-2.683c-0.181-0.317-0.181-0.788,0-1.105
						c0.465-0.812,0.713-1.734,0.714-2.678c0-0.945-0.249-1.868-0.714-2.681c-0.181-0.317-0.181-0.788,0-1.105
						c0.465-0.812,0.713-1.734,0.714-2.678C313.155,39.231,310.737,36.813,307.754,36.814z"/>
					<path id="path393929" style="fill:#1C5442;" d="M307.754,36.808l-0.803,25.339l0.803,0l0.803,0L307.754,36.808z"/>
				</g>
				<path id="path393933" style="fill:#9AE4A4;" d="M265.324,210.084c-2.324,3.034-2.595,7.168-0.686,10.479
					c1.912,3.306,5.624,5.139,9.411,4.647c2.32-3.034,2.589-7.165,0.681-10.474C272.821,211.43,269.111,209.595,265.324,210.084
					L265.324,210.084z"/>
				<path id="path393935" style="fill:#9AE4A4;" d="M282.876,210.927c-2.324,3.034-2.595,7.168-0.686,10.479
					c1.912,3.306,5.624,5.139,9.411,4.647c2.32-3.034,2.589-7.165,0.681-10.474C290.372,212.273,286.663,210.438,282.876,210.927z"
					/>
				<path id="path393937" style="fill:#9AE4A4;" d="M302.429,224.722c3.588,1.315,7.616,0.343,10.208-2.465
					c2.587-2.81,3.232-6.899,1.634-10.368c-3.587-1.311-7.611-0.338-10.202,2.468C301.482,217.164,300.835,221.252,302.429,224.722z
					"/>
				<path id="circle393939" style="fill:#E32B3B;" d="M277.836,211.775c3.048,0,5.518,2.471,5.518,5.519
					c0,3.048-2.471,5.519-5.518,5.519c-3.048,0-5.519-2.471-5.519-5.519C272.317,214.246,274.788,211.775,277.836,211.775z"/>
				<path id="path393941" style="fill:#356783;" d="M262.116,225.947c2.604,12.904,13.998,22.564,27.602,22.573
					c13.499-0.009,24.823-9.522,27.54-22.278c0.595-2.794-1.71-5.137-4.571-5.137h-46.24
					C263.753,221.105,261.584,223.309,262.116,225.947L262.116,225.947z"/>
				<path id="path393975" style="fill:#295269;" d="M309.48,221.105c-3.273,11.967-14.215,20.715-27.161,20.723
					c-5.457-0.004-10.559-1.56-14.88-4.256c5.157,6.664,13.229,10.944,22.28,10.95c13.499-0.009,24.822-9.524,27.539-22.28
					c0.595-2.794-1.71-5.137-4.571-5.137H309.48z"/>
			</g>
		</g>
		<g id="g1586">
			<path id="path393915" style="fill:#354769;" d="M258.897,286.87v9.467c0,14.847,11.952,26.801,26.799,26.801h7.022
				c14.847,0,26.799-11.954,26.799-26.801v-9.467h-0.279c-8.213,3.741-18.921,5.815-30.03,5.818
				c-11.11-0.002-21.819-2.077-30.032-5.818H258.897z"/>
			<path id="path393917" style="fill:#11384F;" d="M258.897,293.292v3.044c0,14.847,11.952,26.801,26.799,26.801h7.022
				c14.847,0,26.799-11.954,26.799-26.801v-3.044h-0.279c-8.213,3.741-18.921,5.815-30.03,5.818
				c-11.11-0.002-21.819-2.077-30.032-5.818H258.897z"/>
			<path id="rect393953" style="fill:#0E2838;" d="M259.467,293.623h5.377c9.57,0,17.327,7.758,17.327,17.327v1.948
				c0,9.57-7.758,17.327-17.327,17.327h-5.377c-9.57,0-17.327-7.758-17.327-17.327v-1.948
				C242.14,301.381,249.898,293.623,259.467,293.623z"/>
			<path id="rect393955" style="fill:#0E2838;" d="M311.991,293.623h-5.377c-9.57,0-17.327,7.758-17.327,17.327v1.948
				c0,9.57,7.758,17.327,17.327,17.327h5.377c9.57,0,17.327-7.758,17.327-17.327v-1.948
				C329.318,301.381,321.56,293.623,311.991,293.623z"/>
			<path id="path393957" style="fill:#234A60;" d="M254.572,299.809h3.144c8.568,0,15.513,6.945,15.513,15.513
				c0,0.127-0.002,0.255-0.005,0.382l-1.696,68.881c-0.184,7.489-6.308,13.464-13.8,13.464h-3.169
				c-7.491,0-13.616-5.975-13.8-13.464l-1.696-68.881c-0.211-8.565,6.561-15.679,15.126-15.89
				C254.317,299.81,254.445,299.809,254.572,299.809z"/>
			<path id="path393959" style="fill:#234A60;" d="M316.886,299.809h-3.144c-8.568,0-15.513,6.945-15.513,15.513
				c0,0.127,0.001,0.255,0.005,0.382l1.696,68.881c0.184,7.489,6.308,13.464,13.8,13.464h3.169c7.491,0,13.615-5.975,13.8-13.464
				l1.696-68.881c0.211-8.565-6.561-15.679-15.126-15.89C317.141,299.81,317.014,299.809,316.886,299.809z"/>
			<path id="path393961" style="fill:#172D3A;" d="M255.957,379.921c-9.599,0-17.327,7.728-17.327,17.327v8.628h34.891v-8.628
				c0-9.599-7.728-17.327-17.327-17.327H255.957z"/>
			<path id="path393963" style="fill:#172D3A;" d="M315.919,379.921c-9.599,0-17.327,7.728-17.327,17.327v8.628h34.891v-8.628
				c0-9.599-7.728-17.327-17.327-17.327H315.919z"/>
		</g>
		<g id="g1576">
			<path id="rect393893" style="fill:#DF8A58;" d="M270.015,146.924h38.975c3.39,0,6.138,2.748,6.138,6.139l0,0
				c0,3.39-2.748,6.138-6.138,6.138h-38.975c-3.39,0-6.138-2.748-6.138-6.138l0,0C263.877,149.672,266.625,146.924,270.015,146.924z
				"/>
			<path id="rect393895" style="fill:#DF8A58;" d="M287.945,126.325h3.274c9.729,0,17.616,7.887,17.616,17.616v20.254
				c0,9.729-7.887,17.616-17.616,17.616h-3.274c-9.729,0-17.615-7.887-17.615-17.616v-20.254
				C270.329,134.212,278.216,126.325,287.945,126.325z"/>
			<path id="path393897" style="fill:#002437;" d="M269.962,126.992h6.033v17.634c0,2.295-1.86,4.155-4.155,4.155l0,0h-7.51v-16.156
				C264.33,129.514,266.851,126.992,269.962,126.992z"/>
			<path id="path393899" style="fill:#001825;" d="M269.085,111.095v12.326c0,4.498,3.647,8.145,8.145,8.145h3.529
				c1.521,0,2.778,1.187,2.865,2.705l0.011,0.19c0.045,0.775,0.686,1.38,1.462,1.38h10.415c1.611,0,2.918,1.306,2.918,2.917v1.452
				c0,1.187,0.963,2.15,2.15,2.15h3.393c1.459,0,2.641,1.182,2.641,2.641l0,0v2.292c0,1.451,1.176,2.627,2.627,2.627l0,0h5.633
				v-18.386c0-1.058-0.858-1.915-1.915-1.915l0,0h-1.056v-3.41c0-8.348-6.767-15.115-15.115-15.115c0,0,0,0,0,0L269.085,111.095z"/>
			<path id="rect393901" style="fill:#002437;" d="M280.273,152.57L280.273,152.57c0.682,0,1.235,0.553,1.235,1.235v2.689
				c0,0.682-0.553,1.235-1.235,1.235l0,0c-0.682,0-1.235-0.553-1.235-1.235v-2.689C279.038,153.123,279.591,152.57,280.273,152.57z"
				/>
			<path id="rect393903" style="fill:#002437;" d="M299.416,152.57L299.416,152.57c0.682,0,1.235,0.553,1.235,1.235v2.689
				c0,0.682-0.553,1.235-1.235,1.235l0,0c-0.682,0-1.235-0.553-1.235-1.235v-2.689C298.181,153.123,298.734,152.57,299.416,152.57z"
				/>
			<path id="path393905" style="fill:#C14432;" d="M286.779,154.32l-0.778,5.662c-0.095,0.69,0.388,1.326,1.077,1.421
				c0.057,0.008,0.114,0.012,0.172,0.012h1.918h1.92c0.696,0,1.261-0.564,1.261-1.261c0-0.057-0.004-0.115-0.012-0.172l-0.778-5.662
				c-0.113-0.821-0.814-1.432-1.643-1.432h-0.748h-0.746C287.593,152.887,286.892,153.499,286.779,154.32L286.779,154.32z"/>
			<path id="path393907" style="fill:#801013;" d="M282.496,166.02v1.045c0,4.16,3.351,7.511,7.511,7.511
				c4.16,0,7.509-3.351,7.509-7.511v-1.045c0-1.099-0.891-1.99-1.99-1.99h-11.04C283.387,164.029,282.496,164.92,282.496,166.02z"/>
			<path id="path393909" style="fill:#912F1F;" d="M289.979,168.75c-2.316,0.002-4.54,0.908-6.198,2.525
				c1.348,1.994,3.628,3.3,6.226,3.3c2.586,0,4.858-1.293,6.207-3.271C294.551,169.667,292.312,168.75,289.979,168.75z"/>
			<path id="rect393911" style="fill:#002437;" d="M277.417,146.642h6.413c1.501,0,2.718,1.217,2.718,2.718v0
				c0,1.501-1.217,2.718-2.718,2.718h-6.413c-1.501,0-2.718-1.217-2.718-2.718v0C274.699,147.859,275.916,146.642,277.417,146.642z"
				/>
			<path id="rect393913" style="fill:#002437;" d="M295.896,146.642h6.413c1.501,0,2.717,1.217,2.717,2.718v0
				c0,1.501-1.217,2.718-2.717,2.718h-6.413c-1.501,0-2.717-1.217-2.717-2.718v0C293.178,147.859,294.395,146.642,295.896,146.642z"
				/>
			<path id="rect393965" style="fill:#222F36;" d="M276.284,113.141h17.195c1.521,0,2.754,1.233,2.754,2.755l0,0
				c0,1.521-1.233,2.754-2.754,2.754h-17.195c-1.521,0-2.754-1.233-2.754-2.754l0,0C273.53,114.374,274.763,113.141,276.284,113.141
				z"/>
			<path id="rect393967" style="fill:#183E4C;" d="M267.983,132.18L267.983,132.18c0.835,0,1.512,0.677,1.512,1.512v10.089
				c0,0.835-0.677,1.512-1.512,1.512h0c-0.835,0-1.513-0.677-1.513-1.512v-10.089C266.47,132.857,267.147,132.18,267.983,132.18z"/>
			<path id="circle393969" style="fill:#BA452B;" d="M270.208,150.109c1.616,0,2.927,1.31,2.927,2.927
				c0,1.616-1.31,2.926-2.927,2.926s-2.927-1.31-2.927-2.926C267.281,151.42,268.592,150.109,270.208,150.109z"/>
			<path id="circle393971" style="fill:#BA452B;" d="M309.145,150.109c1.616,0,2.927,1.31,2.927,2.927
				c0,1.616-1.31,2.926-2.927,2.926c-1.616,0-2.927-1.31-2.927-2.926C306.218,151.42,307.529,150.109,309.145,150.109z"/>
		</g>
	</g>
	<g id="layer6">
		<g id="g394087" transform="matrix(1.3820107,0,0,1.3820107,109.7174,-64.585748)">
			<g id="g1783">
				<path id="path394005" style="fill:#3D1F41;" d="M389.414,138.245h9.97c9.179,0,16.62,7.441,16.62,16.62v21.671h-26.59V138.245z"
					/>
				<path id="path394007" style="fill:#3D1F41;" d="M377.793,135.184h11.929v39.405h-27.414v-23.92
					C362.307,142.117,369.24,135.184,377.793,135.184C377.792,135.184,377.792,135.184,377.793,135.184z"/>
				<path id="path394009" style="fill:#2C0B30;" d="M381.326,139.682c-8.553,0-15.486,6.933-15.486,15.486c0,0,0,0,0,0.001v19.421
					h23.882v-34.907H381.326z"/>
				<path id="path394011" style="fill:#2C0B30;" d="M389.414,143.267v33.269h21.439v-16.649c0-9.179-7.441-16.62-16.619-16.62
					c0,0-0.001,0-0.001,0H389.414z"/>
				<path id="rect394013" style="fill:#FDB996;" d="M372.258,152.036h34.925c2.755,0,4.989,2.233,4.989,4.989l0,0
					c0,2.755-2.233,4.989-4.989,4.989h-34.925c-2.755,0-4.989-2.233-4.989-4.989l0,0C367.27,154.27,369.503,152.036,372.258,152.036
					z"/>
				<path id="path394015" style="fill:#4C1E53;" d="M388.734,127.43h23.581v6.863c0,8.907-7.221,16.128-16.128,16.128h-16.699
					v-13.744C379.487,131.57,383.627,127.43,388.734,127.43L388.734,127.43z"/>
				<path id="path394021" style="fill:#FDB996;" d="M386.697,138.298c0,0.001,0,0.001,0,0.002c0,0.001,0,0.001,0,0.002
					c0,7.544-6.115,13.661-13.66,13.661c0,0-0.001,0-0.001,0c-0.268-0.019-0.536-0.045-0.803-0.08
					c-0.343,1.423-0.518,2.883-0.521,4.349c0.001,10.138,8.063,18.356,18.008,18.357c9.945,0,18.007-8.219,18.008-18.357
					c0-2.627-0.553-5.224-1.623-7.615c-1.546,0.527-3.167,0.8-4.8,0.81C394.489,149.424,388.512,144.871,386.697,138.298
					L386.697,138.298z"/>
				<g id="g394027" transform="translate(0.17325036)">
					<path id="rect394023" style="fill:#3D1F41;" d="M381.328,154.246L381.328,154.246c0.501,0,0.907,0.406,0.907,0.907v2.407
						c0,0.501-0.406,0.907-0.907,0.907l0,0c-0.501,0-0.907-0.406-0.907-0.907v-2.407
						C380.421,154.652,380.827,154.246,381.328,154.246z"/>
					<path id="rect394025" style="fill:#3D1F41;" d="M397.768,154.246L397.768,154.246c0.501,0,0.907,0.406,0.907,0.907v2.407
						c0,0.501-0.406,0.907-0.907,0.907h0c-0.501,0-0.907-0.406-0.907-0.907v-2.407C396.861,154.652,397.267,154.246,397.768,154.246
						z"/>
				</g>
				<path id="path394029" style="fill:#FF7A70;" d="M389.721,155.756c-1.288,0-2.325,1.039-2.325,2.327v2.422h4.65v-2.422
					C392.046,156.794,391.009,155.756,389.721,155.756L389.721,155.756z"/>
				<path id="path394031" style="fill:#93323C;" d="M384.752,163.223v1.07c0,2.639,2.125,4.764,4.764,4.764h0.411
					c2.639,0,4.764-2.125,4.764-4.764v-1.07H384.752z"/>
				<path id="rect394033" style="fill:#2B0730;" d="M379.461,149.104h3.369c0.785,0,1.421,0.636,1.421,1.421l0,0
					c0,0.785-0.636,1.421-1.421,1.421h-3.369c-0.785,0-1.421-0.636-1.421-1.421l0,0C378.039,149.74,378.676,149.104,379.461,149.104
					z"/>
				<path id="rect394035" style="fill:#2B0730;" d="M395.954,149.104h3.369c0.785,0,1.421,0.636,1.421,1.421l0,0
					c0,0.785-0.636,1.421-1.421,1.421h-3.369c-0.785,0-1.421-0.636-1.421-1.421l0,0C394.533,149.74,395.169,149.104,395.954,149.104
					z"/>
				<circle id="circle394081" style="fill:#FF8464;" cx="372.395" cy="157.249" r="2.531"/>
			</g>
			<g id="g1739">
				<path id="path393979" style="fill:#FDB096;" d="M385.337,248.47l2.216,69.55l-9.015,1.372l-14.106-66.899L385.337,248.47z"/>
				<path id="path393981" style="fill:#FDB096;" d="M393.816,248.47l-2.216,69.55l9.015,1.372l14.106-66.899L393.816,248.47z"/>
				<path id="path393983" style="fill:#5D676D;" d="M378.463,317.335l-1.738,10.264h11.426l-0.568-10.264H378.463z"/>
				<path id="path393985" style="fill:#5D676D;" d="M400.69,317.335l1.738,10.264h-11.426l0.568-10.264H400.69z"/>
				<path id="path393987" style="fill:#172D3A;" d="M380.775,322.895c-2.375,0-4.287,1.912-4.287,4.287v3.615h11.978v-3.615
					c0-2.375-1.912-4.287-4.287-4.287H380.775z"/>
				<path id="path393989" style="fill:#172D3A;" d="M398.378,322.895c2.375,0,4.287,1.912,4.287,4.287v3.615h-11.978v-3.615
					c0-2.375,1.912-4.287,4.287-4.287H398.378z"/>
				<path id="path394077" style="opacity:0.3272;fill:#FFCEBD;enable-background:new    ;" d="M366.128,256.337h3.213l10.594,59.356
					h-1.532L366.128,256.337z"/>
				<path id="path394079" style="opacity:0.3272;fill:#FFCEBD;enable-background:new    ;" d="M394.392,256.492h3.917l-4.739,59.032
					l-1.487,0.07L394.392,256.492z"/>
			</g>
			<g id="g1796">
				<path id="rect393991" style="fill:#FFA085;" d="M381.773,184.703L381.773,184.703c2.818,2.422,3.139,6.669,0.717,9.487
					l-20.603,23.972c-2.422,2.818-6.669,3.139-9.487,0.717l0,0c-2.818-2.422-3.139-6.669-0.717-9.487l20.603-23.972
					C374.708,182.602,378.956,182.281,381.773,184.703z"/>
				<path id="rect393993" style="fill:#FFA085;" d="M397.991,184.703L397.991,184.703c-2.818,2.422-3.139,6.669-0.717,9.487
					l20.603,23.972c2.422,2.818,6.669,3.139,9.487,0.717l0,0c2.818-2.422,3.139-6.669,0.717-9.487l-20.603-23.972
					C405.056,182.602,400.809,182.281,397.991,184.703z"/>
				<path id="path393999" style="fill:#F09938;" d="M389.721,204.323c-14.693,0-26.523,12.539-26.523,28.113v17.565
					c0,1.708,0.142,3.38,0.415,5.002h52.216c0.273-1.623,0.415-3.294,0.415-5.002v-17.565
					C416.244,216.862,404.414,204.323,389.721,204.323z"/>
				<path id="path394001" style="fill:#F08338;" d="M389.721,204.323c-7.104,0-13.533,2.937-18.285,7.725
					c2.131-0.581,4.367-0.892,6.674-0.892c14.693,0,26.523,12.539,26.523,28.113v15.734h11.196c0.273-1.623,0.415-3.294,0.415-5.002
					v-17.565C416.244,216.862,404.414,204.323,389.721,204.323z"/>
				<path id="rect394003" style="fill:#F89B3C;" d="M382.192,181.16h15.058c7.601,0,13.763,6.162,13.763,13.763v3.49
					c0,7.601-6.162,13.763-13.763,13.763h-15.058c-7.601,0-13.763-6.162-13.763-13.763v-3.49
					C368.429,187.322,374.591,181.16,382.192,181.16z"/>
				<path id="path394017" style="fill:#FDB996;" d="M382.193,181.161c-2.607,0-5.04,0.716-7.113,1.965v6.225
					c0,5.351,4.309,9.66,9.66,9.66h9.963c5.351,0,9.66-4.309,9.66-9.66v-6.225c-2.073-1.249-4.507-1.965-7.113-1.965H382.193z"/>
				<path id="rect394019" style="fill:#FFA282;" d="M383.374,173.408v9.689c0,3.231,2.6,5.832,5.831,5.832h1.032
					c3.231,0,5.831-2.602,5.831-5.832v-9.689c-2.029,0.78-4.179,1.18-6.347,1.181C387.553,174.588,385.403,174.188,383.374,173.408z
					"/>
				<path id="rect394075" style="opacity:0.3272;fill:#FFD8BB;enable-background:new    ;" d="M366.567,232.576h0.084
					c1.087,0,1.967,0.881,1.967,1.967v16.563c0,1.087-0.881,1.967-1.967,1.967h-0.084c-1.087,0-1.968-0.881-1.968-1.967v-16.563
					C364.599,233.457,365.48,232.576,366.567,232.576z"/>
			</g>
			<g id="g1766">
				<path id="rect393995" style="fill:#FDB996;" d="M346.729,176.736L346.729,176.736c3.596-0.932,7.268,1.228,8.2,4.824
					l7.93,30.598c0.932,3.597-1.228,7.268-4.824,8.2l0,0c-3.596,0.932-7.268-1.228-8.2-4.824l-7.93-30.598
					C340.973,181.339,343.133,177.668,346.729,176.736z"/>
				<path id="rect394037" style="fill:#FFA586;" d="M337.647,171.669l4.714-2.225c3.137-1.481,6.881-0.139,8.362,2.999l3.778,8.002
					c1.481,3.137,0.139,6.881-2.999,8.362l-4.714,2.225c-3.137,1.481-6.881,0.139-8.362-2.999l-3.778-8.002
					C333.167,176.894,334.51,173.15,337.647,171.669z"/>
				<path id="rect394041" style="fill:#FF9480;" d="M348.539,182.934l4.543-5.323c1.295-1.517,3.574-1.697,5.091-0.403l0,0
					c1.517,1.295,1.697,3.574,0.403,5.091l-4.543,5.323c-1.295,1.517-3.574,1.697-5.091,0.403l0,0
					C347.424,186.73,347.244,184.451,348.539,182.934z"/>
				<g id="g394065" transform="rotate(-48.198216,33.542375,75.592867)">
					<path id="rect394045" style="fill:#FA9A4F;" d="M159.799,372.743l19.566,0c0.524,0,0.95,0.425,0.95,0.95v8.12
						c0,0.525-0.425,0.95-0.95,0.95h-19.566c-0.525,0-0.95-0.425-0.95-0.95v-8.12C158.85,373.169,159.275,372.743,159.799,372.743z"
						/>
					<path id="path394047" style="fill:#FA9A4F;" d="M167.46,365.097c-4.725,0-8.564,3.66-8.85,8.31l21.944,0
						c-0.286-4.65-4.123-8.31-8.848-8.31H167.46z"/>
					<path id="path394049" style="fill:#ED7A40;" d="M180.316,381.279l-17.771,0.001c-0.526,0-0.951-0.424-0.951-0.95l0.001-7.586
						l-1.795,0c-0.526,0-0.95,0.422-0.95,0.949l0.001,8.119c0,0.526,0.422,0.95,0.949,0.95l19.568,0.001
						c0.526,0,0.949-0.424,0.949-0.95L180.316,381.279z"/>
					<path id="rect394051" style="fill:#47CD8B;" d="M158.01,373.269h23.144c0.927,0,1.678,0.751,1.678,1.678l0,0
						c0,0.927-0.751,1.678-1.678,1.678l-23.144,0c-0.927,0-1.678-0.751-1.678-1.678l0,0
						C156.333,374.02,157.084,373.269,158.01,373.269z"/>
					<path id="rect394053" style="fill:#7D2839;" d="M158.01,374.705l23.144,0c0.927,0,1.678,0.751,1.678,1.678l0,0
						c0,0.927-0.751,1.678-1.678,1.678l-23.144,0c-0.927,0-1.678-0.751-1.678-1.678l0,0
						C156.333,375.456,157.084,374.705,158.01,374.705z"/>
					<g id="g394061" transform="translate(0.41444729,2.4570327)">
						<path id="rect394055" style="fill:#D83A57;" d="M158.508,374.818h5.877c0.53,0,0.96,0.43,0.96,0.96l0,0
							c0,0.53-0.43,0.96-0.96,0.96h-5.877c-0.53,0-0.96-0.43-0.96-0.96l0,0C157.548,375.248,157.978,374.818,158.508,374.818z"/>
						<path id="rect394057" style="fill:#D83A57;" d="M166.216,374.818l5.877,0c0.53,0,0.96,0.43,0.96,0.96l0,0
							c0,0.53-0.43,0.96-0.96,0.96l-5.877,0c-0.53,0-0.96-0.43-0.96-0.96l0,0C165.256,375.248,165.686,374.818,166.216,374.818z"/>
						<path id="rect394059" style="fill:#D83A57;" d="M173.952,374.818l5.877,0c0.53,0,0.96,0.43,0.96,0.96l0,0
							c0,0.53-0.43,0.96-0.96,0.96l-5.877,0c-0.53,0-0.96-0.43-0.96-0.96l0,0C172.992,375.248,173.421,374.818,173.952,374.818z"/>
					</g>
					<path id="path394063" style="fill:#ED7A40;" d="M179.828,370.395l-17.373,0c0.107-1.734,0.709-3.331,1.665-4.651
						c-3.084,1.248-5.296,4.176-5.51,7.663l21.944,0.002C180.489,372.341,180.236,371.326,179.828,370.395z"/>
				</g>
			</g>
			<g id="g1750">
				<path id="rect393997" style="fill:#FDB996;" d="M433.035,176.736L433.035,176.736c-3.597-0.932-7.268,1.228-8.2,4.824
					l-7.93,30.598c-0.932,3.596,1.228,7.268,4.824,8.2l0,0c3.597,0.932,7.268-1.228,8.2-4.824l7.93-30.598
					C438.791,181.339,436.631,177.668,433.035,176.736z"/>
				<path id="rect394039" style="fill:#FFA586;" d="M416.48,186.793l0.496-5.189c0.33-3.453,3.398-5.985,6.851-5.655l8.809,0.843
					c3.454,0.33,5.985,3.398,5.655,6.851l-0.496,5.189c-0.33,3.454-3.398,5.985-6.851,5.655l-8.809-0.842
					C418.682,193.314,416.15,190.247,416.48,186.793z"/>
				<path id="rect394043" style="fill:#FF9480;" d="M431.729,183.189l-2.254-6.625c-0.642-1.888,0.368-3.939,2.256-4.581l0,0
					c1.888-0.642,3.939,0.368,4.581,2.256l2.253,6.625c0.642,1.888-0.368,3.939-2.256,4.581l0,0
					C434.423,186.087,432.372,185.077,431.729,183.189z"/>
				<path id="path394067" style="fill:#ABF6FF;" d="M422.815,167.264v2.862c0,0.465-0.156,0.911-0.434,1.24l-2.207,2.614
					c-0.808,0.957-1.262,2.254-1.262,3.608v14.456c0,2.376,1.626,4.301,3.632,4.301h2.248h2.248c2.006,0,3.631-1.926,3.631-4.301
					v-14.456c0-1.353-0.454-2.651-1.262-3.608l-2.207-2.614c-0.278-0.329-0.434-0.775-0.434-1.24v-2.862
					c0-0.414-0.283-0.749-0.632-0.749l0,0h-1.345h-1.345C423.098,166.515,422.815,166.85,422.815,167.264L422.815,167.264z"/>
				<path id="rect394069" style="fill:#58008A;" d="M422.605,164.366h4.798c0.295,0,0.534,0.239,0.534,0.534v2.716
					c0,0.295-0.239,0.534-0.534,0.534h-4.798c-0.295,0-0.534-0.239-0.534-0.534V164.9
					C422.071,164.605,422.31,164.366,422.605,164.366z"/>
				<path id="path394071" style="fill:#5D2722;" d="M419.926,174.311c-0.652,0.917-1.011,2.078-1.013,3.277v14.456
					c0,2.376,1.625,4.302,3.631,4.302c0,0,0,0,0,0h2.247h2.247c2.006,0,3.632-1.926,3.632-4.301c0,0,0,0,0-0.001v-14.456
					c0-1.198-0.356-2.359-1.005-3.277H419.926z"/>
				<path id="path394073" style="fill:#5D257C;" d="M418.914,178.024v12.37h11.758v-12.37H418.914z"/>
				<circle id="circle394083" style="fill:#FF8464;" cx="407.747" cy="157.249" r="2.531"/>
				<path id="rect394085" style="opacity:0.3405;fill:#D0D0D0;enable-background:new    ;" d="M420.724,174.97L420.724,174.97
					c0.675,0,1.222,0.547,1.222,1.222v16.945c0,0.675-0.547,1.222-1.222,1.222l0,0c-0.675,0-1.222-0.547-1.222-1.222v-16.945
					C419.502,175.517,420.049,174.97,420.724,174.97z"/>
			</g>
		</g>
	</g>
	<g id="layer7">
		<g id="g394217" transform="matrix(1.3820107,0,0,1.3820107,-0.17806634,-74.186295)">
			<g id="g1676">
				<path id="rect394105" style="fill:#F3C0AF;" d="M303.632,151.411h34.356c2.006,0,3.633,1.626,3.633,3.632l0,0
					c0,2.006-1.626,3.633-3.633,3.633h-34.356c-2.006,0-3.633-1.626-3.633-3.633l0,0C300,153.037,301.626,151.411,303.632,151.411z"
					/>
				<path id="path394107" style="fill:#B32927;" d="M328.471,129.641h6.044c4.391,0,7.951,3.56,7.951,7.951c0,0,0,0,0,0v12.065
					c0,1.539-1.248,2.787-2.787,2.787h-11.208V129.641z"/>
				<path id="path394109" style="fill:#E85429;" d="M304.147,125.742c-4.486,0-8.123,3.636-8.123,8.122c0,0,0,0,0,0.001v3.149
					c0.003,1.858,1.443,3.398,3.296,3.526v5.588c0,3.109,2.52,5.629,5.629,5.629h6.402v-11.201h5.065v-14.812H304.147z"/>
				<path id="rect394111" style="fill:#F3C0AF;" d="M318.868,132.903h3.884c7.647,0,13.845,6.199,13.845,13.845v14.432
					c0,7.647-6.199,13.845-13.845,13.845h-3.884c-7.646,0-13.845-6.199-13.845-13.845v-14.432
					C305.023,139.101,311.222,132.903,318.868,132.903z"/>
				<path id="path394113" style="fill:#DE442C;" d="M304.711,158.252v10.228c0,6.577,5.332,11.909,11.909,11.909l0,0h8.399
					c6.577,0,11.909-5.332,11.909-11.909l0,0v-10.228c0-0.868-0.704-1.572-1.573-1.572h-0.043c-0.868,0-1.572,0.704-1.572,1.572
					v2.659c0,0.825-0.669,1.494-1.494,1.494h-3.565c-0.825,0-1.494-0.669-1.494-1.494v-0.15c0-0.929-0.753-1.682-1.682-1.682h-9.367
					c-0.929,0-1.682,0.753-1.682,1.682v0.15c0,0.825-0.669,1.494-1.494,1.494h-3.567c-0.825,0-1.494-0.669-1.494-1.494v-2.659
					c0-0.868-0.704-1.572-1.573-1.572h-0.043C305.415,156.68,304.711,157.384,304.711,158.252L304.711,158.252z"/>
				<path id="path394115" style="fill:#FF808A;" d="M320.559,154.177c-0.842,0-1.553,0.626-1.66,1.462l-0.392,3.054
					c-0.091,0.71,0.411,1.36,1.121,1.451c0.055,0.007,0.109,0.01,0.164,0.011h1.019h1.019c0.716,0,1.296-0.581,1.296-1.296
					c0-0.055-0.004-0.11-0.011-0.165l-0.394-3.054c-0.107-0.835-0.818-1.461-1.66-1.462h-0.25H320.559z"/>
				<g id="g394121" transform="matrix(0.68563854,0,0,0.68563854,59.000221,33.272872)">
					<path id="path394117" style="fill:#51231C;" d="M369.571,172.333c-2.16,0-3.864,1.87-3.864,4.094v3.993
						c0,0.366,0.297,0.663,0.663,0.663l0,0h0.312c0.366,0,0.663-0.297,0.663-0.663l0,0v-3.993c0-1.404,1.014-2.448,2.227-2.448
						c1.213,0,2.225,1.044,2.225,2.448v3.993c0,0.366,0.297,0.663,0.663,0.663l0,0h0.314c0.366,0,0.663-0.297,0.663-0.663l0,0
						v-3.993C373.435,174.203,371.731,172.333,369.571,172.333L369.571,172.333z"/>
					<path id="path394119" style="fill:#51231C;" d="M394.126,172.333c-2.16,0-3.864,1.87-3.864,4.094v3.993
						c0,0.366,0.297,0.663,0.663,0.663c0,0,0,0,0,0h0.312c0.366,0,0.663-0.297,0.663-0.663l0,0v-3.993
						c0-1.404,1.014-2.448,2.227-2.448c1.213,0,2.225,1.044,2.225,2.448v3.993c0,0.366,0.297,0.663,0.663,0.663l0,0h0.314
						c0.366,0,0.663-0.297,0.663-0.663l0,0v-3.993C397.99,174.203,396.286,172.333,394.126,172.333L394.126,172.333z"/>
				</g>
				<path id="rect394123" style="fill:#DE442C;" d="M309.929,146.707h4.151c1.176,0,2.129,0.953,2.129,2.128l0,0
					c0,1.175-0.953,2.128-2.129,2.128h-4.151c-1.175,0-2.128-0.953-2.128-2.128l0,0C307.801,147.66,308.754,146.707,309.929,146.707
					z"/>
				<path id="rect394125" style="fill:#DE442C;" d="M327.303,146.707h4.151c1.176,0,2.129,0.953,2.129,2.128l0,0
					c0,1.175-0.953,2.128-2.129,2.128h-4.151c-1.175,0-2.128-0.953-2.128-2.128l0,0C325.175,147.66,326.128,146.707,327.303,146.707
					z"/>
				<path id="circle394127" style="fill:#E3626D;" d="M303.805,153.385c0.9,0,1.629,0.729,1.629,1.629
					c0,0.9-0.729,1.629-1.629,1.629c-0.9,0-1.629-0.729-1.629-1.629C302.176,154.114,302.906,153.385,303.805,153.385z"/>
				<path id="circle394129" style="fill:#E3626D;" d="M337.973,153.385c0.9,0,1.629,0.729,1.629,1.629
					c0,0.9-0.729,1.629-1.629,1.629c-0.9,0-1.629-0.729-1.629-1.629C336.344,154.114,337.074,153.385,337.973,153.385z"/>
				<rect id="rect394131" x="304.759" y="140.078" style="fill:#DE442C;" width="3.131" height="19.34"/>
				<rect id="rect394133" x="333.755" y="135.603" style="fill:#B32927;" width="3.168" height="23.667"/>
				<path id="path394135" style="fill:#DE442C;" d="M315.335,118.965c-3.032,0-5.489,2.457-5.489,5.489v3.039h-0.471
					c-2.877,0-5.209,2.332-5.209,5.209v9.537c0,1.311,1.063,2.374,2.374,2.374h19.51c4.307,0,7.798-3.492,7.799-7.799v-9.321h-2.007
					c-1.234-5.008-5.726-8.527-10.883-8.528H315.335z"/>
				<path id="path394141" style="fill:#B32927;" d="M335.312,156.68c-0.843,0.005-1.532,0.674-1.562,1.517v8.577
					c-0.001,6.577-5.333,11.908-11.909,11.908h-8.397c-1.347-0.001-2.685-0.231-3.955-0.68c2.057,1.545,4.559,2.383,7.132,2.388
					h8.397c6.578,0,11.91-5.332,11.91-11.909v-10.226c0-0.869-0.704-1.574-1.573-1.573H335.312z"/>
				<path id="path394201" style="fill:#B32927;" d="M330.815,124.836v8.91c0,4.307-3.492,7.799-7.799,7.799h-18.851v0.693
					c0,1.311,1.063,2.375,2.374,2.374h19.51c4.307,0,7.798-3.492,7.799-7.799v-9.321h-2.007
					C331.609,126.55,331.261,125.66,330.815,124.836z"/>
			</g>
			<path id="rect394089" style="fill:#F1AA9D;" d="M349.832,180.174L349.832,180.174c-6.248,0-11.313,5.655-11.313,12.632v28.544
				c0,6.976,5.065,12.632,11.313,12.632l0,0c6.248,0,11.313-5.655,11.313-12.632v-28.544
				C361.145,185.829,356.08,180.174,349.832,180.174z"/>
			<path id="rect394091" style="fill:#FD9C94;" d="M394.49,239.744L394.49,239.744c1.471-6.072-2.832-12.327-9.612-13.97
				l-27.742-6.722c-6.78-1.643-13.469,1.948-14.941,8.021l0,0c-1.471,6.072,2.832,12.327,9.612,13.97l27.742,6.722
				C386.329,249.408,393.018,245.817,394.49,239.744z"/>
			<path id="rect394093" style="fill:#F1AA9D;" d="M290.1,180.174L290.1,180.174c6.248,0,11.313,5.655,11.313,12.632v28.544
				c0,6.976-5.065,12.632-11.313,12.632l0,0c-6.248,0-11.313-5.655-11.313-12.632v-28.544
				C278.786,185.829,283.851,180.174,290.1,180.174z"/>
			<g id="g1729">
				<path id="rect394101" style="fill:#F0F0F0;" d="M304.091,177.555h33.457c6.352,0,11.5,5.149,11.5,11.5v54.079
					c0,6.352-5.149,11.5-11.5,11.5h-33.457c-6.351,0-11.5-5.149-11.5-11.5v-54.079C292.59,182.704,297.739,177.555,304.091,177.555z
					"/>
				<path id="path394103" style="fill:#F1B29D;" d="M304.09,177.556c-0.451,0-0.893,0.028-1.329,0.078v14.835
					c0,6.851,5.515,12.366,12.366,12.366h11.385c6.851,0,12.366-5.515,12.366-12.366v-14.835c-0.437-0.05-0.879-0.078-1.329-0.078
					H304.09z"/>
				<path id="path394147" style="opacity:0.4919;fill:#B3C5C9;enable-background:new    ;" d="M339.461,177.715v45.534
					c0,6.371-5.129,11.5-11.5,11.5h-33.456c-0.653,0-1.292-0.057-1.914-0.161v8.545c0,6.371,5.129,11.5,11.501,11.5h33.458
					c6.371,0,11.501-5.129,11.501-11.5v-54.079C349.049,183.336,344.915,178.622,339.461,177.715z"/>
			</g>
			<g id="g1656">
				<path id="rect394095" style="fill:#0C7895;" d="M303.115,251.17L303.115,251.17c5.026,0,9.101,4.373,9.101,9.768v69.745
					c0,5.395-4.075,9.768-9.101,9.768h0c-5.026,0-9.101-4.373-9.101-9.768v-69.745C294.014,255.543,298.088,251.17,303.115,251.17z"
					/>
				<path id="rect394097" style="fill:#0C7895;" d="M338.516,251.17L338.516,251.17c5.026,0,9.101,4.373,9.101,9.768v69.745
					c0,5.395-4.075,9.768-9.101,9.768l0,0c-5.026,0-9.101-4.373-9.101-9.768v-69.745C329.415,255.543,333.49,251.17,338.516,251.17z
					"/>
				<path id="rect394099" style="fill:#0887A8;" d="M348.031,247.877c-1.8,3.991-5.806,6.758-10.484,6.758h-33.456
					c-4.677,0-8.681-2.766-10.482-6.756v7.153c0,9.696,7.806,17.502,17.502,17.502h19.416c9.696,0,17.504-7.806,17.504-17.502
					V247.877z"/>
				<path id="rect394155" style="fill:#1C3C48;" d="M294.398,243.367h51.418c1.785,0,3.232,1.447,3.232,3.232v4.804
					c0,1.785-1.447,3.232-3.232,3.232h-51.418c-1.785,0-3.232-1.447-3.232-3.232v-4.804
					C291.167,244.814,292.613,243.367,294.398,243.367z"/>
				<g id="g394161" transform="translate(0.12628937)">
					<path id="rect394157" style="fill:#32A6C4;" d="M298.805,240.999h1.31c1.785,0,3.232,1.447,3.232,3.232v8.951
						c0,1.785-1.447,3.232-3.232,3.232h-1.31c-1.785,0-3.232-1.447-3.232-3.232v-8.951
						C295.573,242.445,297.02,240.999,298.805,240.999z"/>
					<path id="rect394159" style="fill:#32A6C4;" d="M339.847,240.999h1.311c1.785,0,3.232,1.447,3.232,3.232v8.951
						c0,1.785-1.447,3.232-3.232,3.232h-1.311c-1.785,0-3.232-1.447-3.232-3.232v-8.951
						C336.615,242.445,338.062,240.999,339.847,240.999z"/>
				</g>
				<g id="g394167" transform="translate(0.32184911)">
					<path id="rect394163" style="fill:#FF9A0D;" d="M313.52,241.616h13.954c1.785,0,3.232,1.447,3.232,3.232v8.426
						c0,1.785-1.447,3.232-3.232,3.232H313.52c-1.785,0-3.232-1.447-3.232-3.232v-8.426
						C310.289,243.063,311.736,241.616,313.52,241.616z"/>
					<path id="rect394165" style="fill:#FF661F;" d="M315.682,243.923h9.631c1.232,0,2.23,0.999,2.23,2.23v5.815
						c0,1.232-0.999,2.23-2.23,2.23h-9.631c-1.232,0-2.23-0.999-2.23-2.23v-5.815C313.452,244.921,314.45,243.923,315.682,243.923z"
						/>
				</g>
				<path id="path394169" style="fill:#172D3A;" d="M302.984,326.638c-6.408,0-11.568,5.159-11.568,11.568
					c0.037,1.791,1.518,3.212,3.308,3.176l0,0h16.518c1.79,0.037,3.272-1.385,3.308-3.176l0,0
					C314.551,331.798,309.392,326.638,302.984,326.638L302.984,326.638z"/>
				<path id="path394171" style="fill:#172D3A;" d="M338.708,326.638c-6.408,0-11.568,5.159-11.568,11.568
					c0.037,1.791,1.518,3.212,3.308,3.176l0,0h16.518c1.791,0.037,3.272-1.385,3.309-3.176l0,0
					C350.275,331.798,345.116,326.638,338.708,326.638L338.708,326.638z"/>
			</g>
			<path id="path394173" style="fill:#FFFFFF;" d="M401.124,225.296l22.04-37.676"/>
			<path id="path394181" style="fill:#FFFFFF;" d="M359.236,221.129l1.577,2.42l41.888,4.167l-1.576-2.42L359.236,221.129z"/>
			<path id="path394183" style="fill:#EFA477;" d="M317.45,228.607l44.336,5.997l39.338-9.308l-41.888-4.167L317.45,228.607z"/>
			<g id="g1686">
				<path id="rect394137" style="fill:#FD9C94;" d="M311.553,185.858L311.553,185.858c5.433,3.086,7.045,10.505,3.599,16.571
					l-14.097,24.821c-3.445,6.066-10.642,8.482-16.076,5.397l0,0c-5.433-3.086-7.045-10.505-3.599-16.571l14.097-24.821
					C298.923,185.188,306.12,182.772,311.553,185.858z"/>
				<path id="rect394139" style="fill:#FFB9B4;" d="M300.086,193.854L300.086,193.854c1.081,0.666,1.418,2.083,0.751,3.164
					l-16.405,26.621c-0.666,1.081-2.083,1.418-3.164,0.751l0,0c-1.081-0.666-1.418-2.083-0.751-3.164l16.405-26.621
					C297.588,193.524,299.005,193.188,300.086,193.854z"/>
				
					<ellipse id="circle394143" transform="matrix(0.2281 -0.9736 0.9736 0.2281 60.9298 446.6349)" style="fill:#F3C0AF;" cx="312.154" cy="184.889" rx="16.684" ry="16.684"/>
				<path id="path394145" style="fill:#FFD4A9;" d="M314.985,164.636l-3.916,5.741l-4.847,7.104
					c0.166,0.264,0.367,0.523,0.602,0.774c0.267,0.281,0.576,0.552,0.924,0.812c0.348,0.26,0.734,0.507,1.155,0.74
					c0.421,0.233,0.876,0.451,1.361,0.653c0.486,0.202,1.002,0.386,1.543,0.553c0.541,0.167,1.106,0.315,1.691,0.443
					c0.585,0.128,1.188,0.237,1.804,0.324c0.617,0.087,1.246,0.153,1.882,0.197c0.637,0.044,1.279,0.066,1.922,0.066
					c0.643,0,1.285-0.022,1.922-0.066c0.636-0.044,1.265-0.11,1.882-0.197c0.617-0.087,1.22-0.195,1.804-0.324
					c0.585-0.128,1.15-0.276,1.691-0.443c0.541-0.166,1.057-0.351,1.543-0.553c0.486-0.202,0.941-0.42,1.361-0.653
					c0.421-0.233,0.807-0.481,1.155-0.74c0.348-0.26,0.657-0.531,0.924-0.812c0.234-0.252,0.435-0.51,0.6-0.774l-4.864-7.132
					l-3.898-5.712l-4.12,0.078L314.985,164.636z"/>
				<path id="ellipse394149" style="fill:#DE2D2C;" d="M315.098,174.467c2.079,0,3.764,0.974,3.764,2.174
					c0,1.201-1.685,2.175-3.764,2.175c-2.079,0-3.764-0.974-3.764-2.175C311.335,175.441,313.02,174.467,315.098,174.467z"/>
				<path id="ellipse394151" style="fill:#DE2D2C;" d="M322.65,170.504c2.079,0,3.764,0.974,3.764,2.175
					c0,1.201-1.685,2.175-3.764,2.175c-2.079,0-3.764-0.974-3.764-2.175C318.886,171.478,320.571,170.504,322.65,170.504z"/>
				<ellipse id="ellipse394153" style="fill:#DE2D2C;" cx="317.322" cy="168.892" rx="3.764" ry="2.175"/>
				<path id="path394199" style="fill:#D5774D;" d="M306.163,177.477c-0.267-0.009-1.377,0.01-2.043,0.81
					c-0.416,0.501-0.424,1.399-0.348,2.117c3.391,2.481,9.152,3.979,15.335,3.987c6.1-0.007,11.795-1.466,15.206-3.893
					c0.086-0.731,0.096-1.688-0.339-2.211c-0.647-0.778-1.665-0.815-1.969-0.808c-1.749,2.714-6.978,4.565-12.898,4.565
					c-5.913-0.003-11.133-1.852-12.883-4.563h-0.002C306.222,177.481,306.201,177.478,306.163,177.477L306.163,177.477z"/>
			</g>
			<g id="g1720">
				<path id="path394189" style="fill:#E5815C;" d="M317.45,232.014l44.336,6.462l39.338-9.938l-41.888-4.499L317.45,232.014z"/>
				<g id="g1702">
					<path id="path394175" style="fill:#EFA477;" d="M359.236,221.129l22.427-33.701l41.501,0.192l-22.04,37.676L359.236,221.129z"
						/>
					<path id="path394177" style="fill:#E5815C;" d="M360.813,223.548l22.427-33.701l41.501,0.192l-22.04,37.676L360.813,223.548z"
						/>
					<path id="path394179" style="fill:#D0523F;" d="M401.124,225.296l1.576,2.42l22.04-37.676l-1.576-2.42L401.124,225.296z"/>
					<path id="path394185" style="fill:#EFA477;" d="M359.236,221.129l41.888,4.167v3.241l-41.888-4.499V221.129z"/>
					<path id="path394187" style="fill:#EFA477;" d="M317.45,228.607v3.406l41.786-7.976v-2.909L317.45,228.607z"/>
					<path id="path394191" style="fill:#C45624;" d="M386.944,229.383c0,2.784-8.647,5.211-20.974,5.886
						c-12.327,0.676-25.172-0.573-31.157-3.028c-5.985-2.456-3.574-5.489,5.847-7.357c9.421-1.868,23.437-2.092,33.996-0.543
						l-15.41,5.042H386.944z"/>
					<path id="path394193" style="fill:#FFD4A9;" d="M384.921,229.383c0,2.378-7.926,4.455-19.267,5.049
						c-11.341,0.594-23.223-0.447-28.883-2.529c-5.66-2.082-3.665-4.678,4.851-6.311c8.516-1.633,21.394-1.888,31.305-0.621
						l-13.68,4.412H384.921z"/>
					<path id="path394195" style="fill:#D0523F;" d="M361.785,234.604v3.871l39.338-9.938v-3.241L361.785,234.604z"/>
					<path id="path394197" style="fill:#D0523F;" d="M317.45,228.607l44.336,5.997v3.871l-44.336-6.462V228.607z"/>
					<path id="ellipse394203" style="fill:#DE2D2C;" d="M338.865,226.694c1.654,0,2.994,0.573,2.994,1.28
						c0,0.707-1.341,1.28-2.994,1.28c-1.654,0-2.994-0.573-2.994-1.28C335.871,227.267,337.211,226.694,338.865,226.694z"/>
					<path id="ellipse394205" style="fill:#DE2D2C;" d="M357.505,225.38c1.654,0,2.994,0.573,2.994,1.28s-1.341,1.28-2.994,1.28
						c-1.654,0-2.994-0.573-2.994-1.28S355.851,225.38,357.505,225.38z"/>
					<path id="ellipse394207" style="fill:#DE2D2C;" d="M349.76,226.167c1.654,0,2.994,0.573,2.994,1.28s-1.341,1.28-2.994,1.28
						s-2.994-0.573-2.994-1.28S348.107,226.167,349.76,226.167z"/>
					<path id="ellipse394209" style="fill:#DE2D2C;" d="M353.998,230.323c1.654,0,2.994,0.573,2.994,1.28
						c0,0.707-1.341,1.28-2.994,1.28c-1.654,0-2.994-0.573-2.994-1.28C351.003,230.896,352.344,230.323,353.998,230.323z"/>
					<path id="ellipse394211" style="fill:#DE2D2C;" d="M363.329,230.268c1.654,0,2.994,0.573,2.994,1.28
						c0,0.707-1.341,1.28-2.994,1.28s-2.994-0.573-2.994-1.28C360.335,230.841,361.675,230.268,363.329,230.268z"/>
				</g>
			</g>
			<g id="g1724">
				<path id="rect394213" style="fill:#E88273;" d="M372.426,230.437L372.426,230.437c1.907,0,3.453,1.546,3.453,3.453v8.126
					c0,1.907-1.546,3.453-3.453,3.453l0,0c-1.907,0-3.453-1.546-3.453-3.453v-8.126
					C368.973,231.983,370.519,230.437,372.426,230.437z"/>
				<path id="rect394215" style="fill:#F3C0AF;" d="M380.877,225.557h10.289c4.086,0,7.399,3.313,7.399,7.399v7.797
					c0,4.087-3.313,7.399-7.399,7.399h-10.289c-4.087,0-7.399-3.313-7.399-7.399v-7.797
					C373.477,228.87,376.79,225.557,380.877,225.557z"/>
			</g>
		</g>
	</g>
</g>
</svg>
