<?xml version="1.0" encoding="utf-8"?>
<!-- Generator: Adobe Illustrator 27.5.0, SVG Export Plug-In . SVG Version: 6.00 Build 0)  -->
<svg version="1.1" xmlns="http://www.w3.org/2000/svg" xmlns:xlink="http://www.w3.org/1999/xlink" x="0px" y="0px"
	 viewBox="0 0 750 500" style="enable-background:new 0 0 750 500;" xml:space="preserve">
<g id="BACKGROUND">
	<rect style="fill:#FFFFFF;" width="750" height="500"/>
</g>
<g id="OBJECTS">
	<g>
		<path style="fill:#E69644;" d="M218.482,445.289c-0.437,1.807-7.71,1.341-15.594,1.341c-7.87,0-16.017,0.991-15.667-2.988
			c0.029-0.292,0.117-0.641,0.262-1.035c1.297-3.483,6.937-10.625,10.231-14.618c1.428-1.734,2.405-2.871,2.405-2.871l12.301-4.926
			l1.122-0.452c0,0,0.51,2.274,1.21,5.465c1.166,5.334,2.842,13.248,3.498,17.402C218.453,444.006,218.555,444.968,218.482,445.289z
			"/>
		<path style="fill:#3C344C;" d="M218.482,445.289c-0.437,1.807-7.71,1.341-15.594,1.341c-7.87,0-16.017,0.991-15.667-2.988
			c0.029-0.292,0.117-0.641,0.262-1.035h3.541c0,0,5.465-6.762,13.335-5.29c7.885,1.472,9.619,5.29,9.619,5.29h4.27
			C218.453,444.006,218.555,444.968,218.482,445.289z"/>
		<path style="fill:#E69644;" d="M157.009,444.414c0,1.559-17.751,0.875-28.755,1.822c-10.989,0.947-15.142,0.087-14.618-1.909
			c0.131-0.51,1.822-1.647,4.299-3.104c6.311-3.745,17.751-9.619,21.643-12.811c0.481-0.393,0.845-0.743,1.064-1.049l13.816-0.772
			l1.501-0.087c0,0,0.029,0.408,0.073,1.108c0.175,2.682,0.612,9.604,0.831,13.714C156.951,442.884,157.009,444.05,157.009,444.414z
			"/>
		<path style="fill:#3C344C;" d="M157.079,444.414c0,1.559-17.751,0.875-28.755,1.822c-10.989,0.947-15.143,0.087-14.618-1.909
			c0.131-0.51,1.822-1.647,4.299-3.104l3.979,2.827l34.949-2.725C157.021,442.884,157.079,444.05,157.079,444.414z"/>
		<path style="fill:#3C344C;" d="M216.486,424.156c-0.175,1.56-18.349,5.378-19.398,3.469c-1.035-1.909-14.545-61.124-16.44-68.746
			c-1.909-7.622-9.182-45.019-9.182-45.019l-6.995,29.192l-1.312,5.436c2.244,23.377-5.553,78.103-5.378,78.613
			c0.175,0.525-19.733,3.643-19.689,0c0.044-3.629-1.778-75.494-2.638-87.445c-0.656-9.036,2.74-49.785,4.445-69.169
			c0.539-6.267,0.918-10.304,0.918-10.304s4.241-0.991,10.508-2.172c15.259-2.856,42.586-6.791,50.091,0
			c0.7,0.627,1.224,1.355,1.559,2.172c1.18,2.944,2.07,6.267,2.725,10.304c2.303,14.283,1.603,37.455,0.394,83.888
			C211.982,363.732,216.661,422.597,216.486,424.156z"/>
		<path style="fill:#2D263C;" d="M205.701,270.487h-65.802c0.539-6.267,0.918-10.304,0.918-10.304s4.241-0.991,10.508-2.172h50.091
			c0.7,0.627,1.224,1.355,1.559,2.172C204.156,263.127,205.045,266.45,205.701,270.487z"/>
		<path style="fill:#73A0FB;" d="M199.245,184.762l-0.423,1.647c0,0,0,0.087,0.015,0.277c0,0.102,0.015,0.219,0.015,0.364
			c0.058,1.632,0.262,6.252,0.568,12.009c0.029,0.583,0.073,1.195,0.102,1.807c0.262,4.489,0.583,9.517,0.962,14.297
			c0.044,0.612,0.102,1.21,0.146,1.807c0.335,3.935,0.714,7.637,1.137,10.654c0.16,1.166,0.321,2.39,0.466,3.643
			c0.073,0.598,0.131,1.21,0.204,1.807c0.51,4.693,0.933,9.736,1.253,14.297c0.029,0.612,0.073,1.224,0.117,1.807
			c0.496,7.389,0.729,13.073,0.729,13.073s-6.923,0.117-16.294,0.204c-19.544,0.19-49.683,0.277-49.683-0.889
			c0-0.568,0.437-5.699,1.035-12.388c0.044-0.583,0.102-1.195,0.146-1.807c0.408-4.503,0.86-9.532,1.297-14.297
			c0.044-0.612,0.102-1.21,0.16-1.807c0.539-5.975,1.02-11.309,1.312-14.297c0.058-0.772,0.117-1.385,0.16-1.807
			c0.029-0.452,0.058-0.7,0.058-0.7l-17.154-4.328c0,0,0.656-3.775,1.793-9.269c0.117-0.583,0.233-1.18,0.379-1.807
			c0.889-4.241,2.026-9.269,3.337-14.297c0.146-0.598,0.306-1.21,0.466-1.807c0.364-1.341,0.743-2.682,1.122-3.993
			c1.268-4.329,2.332-7.608,3.848-10.289c0.35-0.641,0.729-1.239,1.151-1.822c0.991-1.385,2.172-2.609,3.687-3.76
			c3.469-2.682,8.628-4.97,16.95-7.957c0.933-0.35,1.924-0.7,2.944-1.049l25.825-1.647c1.195,0.248,2.317,0.481,3.367,0.714
			c14.151,3.134,15.653,5.378,15.653,5.378l-1.078,4.11l-1.093,4.212l-0.481,1.822l-3.731,14.283l-0.408,1.589L199.245,184.762z"/>
		<path style="opacity:0.25;" d="M188.241,262.457c2.376-7.374,7.243-25.024,2.201-33.535c-6.471-10.901,9.007-29.367,8.205-46.491
			l0.656,2.113l-0.481,1.865c0,0,1.035,27.531,2.944,41.216c1.909,13.685,2.769,34.628,2.769,34.628
			S197.612,262.369,188.241,262.457z"/>
		<path style="fill:#73A0FB;" d="M221.339,205.093c-0.583,0.539-1.341,1.035-2.215,1.487c-4.707,2.536-12.811,4.008-16.367,4.372
			c-0.991,0.102-1.618,0.117-1.749,0.044c-0.292-0.16-0.729-4.882-1.151-10.129c-0.058-0.598-0.102-1.195-0.16-1.807
			c-0.379-5.086-0.714-10.245-0.845-12.009c0-0.146-0.015-0.262-0.015-0.364c-0.015-0.189-0.015-0.277-0.015-0.277
			s-0.044-0.612-0.087-1.647c-0.029-0.495-0.058-1.108-0.088-1.807c-0.102-3.541-0.16-9.225,0.394-14.283
			c0.058-0.612,0.146-1.224,0.233-1.822c0.393-2.769,1.02-5.218,1.967-6.85c1.108-1.938,2.667-2.711,4.853-1.472
			c2.682,1.545,4.839,4.489,6.602,8.322c0.277,0.583,0.539,1.195,0.802,1.822c0.86,2.128,1.618,4.474,2.317,6.966
			c0.641,2.332,1.224,4.78,1.749,7.316c0.131,0.598,0.248,1.21,0.364,1.807c0.947,4.722,1.72,9.604,2.463,14.297
			c0.087,0.612,0.189,1.21,0.277,1.807C220.902,202.309,221.12,203.709,221.339,205.093z"/>
		<g>
			<path style="opacity:0.25;fill:#FFFFFF;" d="M203.806,249.18h-64.213c0.044-0.583,0.102-1.195,0.146-1.807h63.951
				C203.719,247.985,203.763,248.597,203.806,249.18z"/>
			<path style="opacity:0.25;fill:#FFFFFF;" d="M202.436,233.076h-61.401c0.044-0.612,0.102-1.21,0.16-1.807h61.036
				C202.305,231.866,202.363,232.478,202.436,233.076z"/>
			<path style="opacity:0.25;fill:#FFFFFF;" d="M200.629,216.971h-58.121c0.058-0.772,0.117-1.385,0.16-1.807h57.816
				C200.527,215.776,200.585,216.374,200.629,216.971z"/>
			<path style="opacity:0.25;fill:#FFFFFF;" d="M220.669,200.867h-93.303c0.117-0.583,0.233-1.18,0.379-1.807h92.648
				C220.479,199.672,220.581,200.269,220.669,200.867z"/>
			<path style="opacity:0.25;fill:#FFFFFF;" d="M217.929,184.762h-86.847c0.146-0.598,0.306-1.21,0.466-1.807h86.016
				C217.695,183.553,217.812,184.165,217.929,184.762z"/>
			<path style="opacity:0.25;fill:#FFFFFF;" d="M213.498,168.673h-76.98c0.35-0.641,0.729-1.239,1.151-1.822h75.027
				C212.973,167.434,213.236,168.046,213.498,168.673z"/>
		</g>
		<path style="opacity:0.25;" d="M215.815,175.639c-2.682-4.795-6.325-9.429-10.799-13c-1.195-0.977-2.463-1.851-3.775-2.638
			c-2.915-1.764-6.121-3.046-9.561-3.673c-13.714-2.492-35.298-0.262-50.324,6.762c3.469-2.682,8.628-4.97,16.95-7.957
			c0.933-0.35,1.924-0.7,2.944-1.049l25.825-1.647c1.195,0.248,2.317,0.481,3.367,0.714c14.151,3.134,15.653,5.378,15.653,5.378
			C210.583,161.109,213.586,167.609,215.815,175.639z"/>
		<g>
			<path style="fill:#7E3836;" d="M141.925,216.315c-2.521,0.51-5.014-0.029-7.025-1.326c-2.099-1.326-3.658-3.483-4.197-6.121
				l-4.984-24.645c-1.035-5.159,2.303-10.173,7.462-11.222c0.627-0.131,1.268-0.19,1.895-0.19c4.43,0,8.409,3.119,9.313,7.637
				l0.831,4.124l4.154,20.52C150.421,210.252,147.084,215.281,141.925,216.315z"/>
			<path style="opacity:0.25;" d="M141.925,216.315c-2.521,0.51-5.014-0.029-7.025-1.326l-4.139-20.52
				c-1.049-5.159,2.288-10.187,7.447-11.222c0.641-0.131,1.268-0.189,1.909-0.189c1.836,0,3.614,0.539,5.101,1.516l4.154,20.52
				C150.421,210.252,147.084,215.281,141.925,216.315z"/>
			<g>
				<path style="opacity:0.45;fill:#FFFFFF;" d="M138.829,179.415c0.146,0.297-1.477,1.391-3.623,2.443
					c-2.147,1.052-4.005,1.664-4.151,1.367c-0.146-0.297,1.476-1.391,3.623-2.444C136.825,179.729,138.683,179.118,138.829,179.415z
					"/>
				<path style="opacity:0.45;fill:#FFFFFF;" d="M139.922,184.825c0.146,0.297-1.477,1.391-3.623,2.443
					c-2.147,1.052-4.005,1.664-4.151,1.367c-0.146-0.297,1.477-1.391,3.623-2.443C137.918,185.139,139.776,184.528,139.922,184.825z
					"/>
				<path style="opacity:0.45;fill:#FFFFFF;" d="M141.015,190.235c0.146,0.297-1.477,1.391-3.623,2.443
					c-2.147,1.052-4.005,1.664-4.151,1.367c-0.146-0.297,1.476-1.391,3.623-2.444C139.011,190.549,140.87,189.938,141.015,190.235z"
					/>
				<path style="opacity:0.45;fill:#FFFFFF;" d="M142.109,195.645c0.146,0.297-1.477,1.391-3.623,2.443
					c-2.147,1.052-4.005,1.664-4.151,1.367c-0.146-0.297,1.476-1.391,3.623-2.443C140.104,195.96,141.963,195.348,142.109,195.645z"
					/>
				<path style="opacity:0.45;fill:#FFFFFF;" d="M143.202,201.055c0.146,0.297-1.477,1.391-3.623,2.443
					c-2.147,1.052-4.005,1.664-4.151,1.367c-0.146-0.297,1.477-1.391,3.623-2.443C141.198,201.37,143.056,200.758,143.202,201.055z"
					/>
				<path style="opacity:0.45;fill:#FFFFFF;" d="M144.295,206.465c0.146,0.297-1.476,1.391-3.623,2.443
					c-2.147,1.052-4.005,1.664-4.151,1.367c-0.146-0.297,1.477-1.391,3.623-2.444C142.291,206.78,144.15,206.168,144.295,206.465z"
					/>
			</g>
		</g>
		<g>
			<path style="fill:#944E48;" d="M164.15,183.975c0,1.122-0.204,2.274-0.627,3.381l-3.235,8.511l-5.713,14.997
				c-1.866,4.911-7.36,7.389-12.286,5.509c-2.915-1.108-4.955-3.483-5.757-6.252c-0.554-1.909-0.51-4.023,0.248-6.034l8.934-23.493
				c1.865-4.926,7.374-7.389,12.286-5.523C161.804,176.513,164.15,180.142,164.15,183.975z"/>
			<path style="opacity:0.25;" d="M160.288,195.868l-5.713,14.997c-1.866,4.911-7.36,7.389-12.286,5.509
				c-2.915-1.108-4.955-3.483-5.757-6.252l5.699-14.982c1.88-4.926,7.374-7.389,12.286-5.524
				C157.417,190.723,159.472,193.099,160.288,195.868z"/>
			<g>
				<path style="opacity:0.45;fill:#FFFFFF;" d="M159.366,183.512c-0.035,0.329-1.991,0.389-4.368,0.133
					c-2.377-0.256-4.275-0.73-4.24-1.059c0.035-0.329,1.991-0.389,4.368-0.133C157.503,182.709,159.401,183.183,159.366,183.512z"/>
				<path style="opacity:0.45;fill:#FFFFFF;" d="M157.404,188.671c-0.035,0.329-1.991,0.389-4.368,0.133
					c-2.377-0.256-4.275-0.73-4.24-1.059c0.035-0.329,1.991-0.389,4.368-0.133C155.541,187.868,157.439,188.342,157.404,188.671z"/>
				<path style="opacity:0.45;fill:#FFFFFF;" d="M155.442,193.83c-0.035,0.329-1.991,0.389-4.368,0.133
					c-2.377-0.256-4.275-0.73-4.24-1.059c0.035-0.329,1.991-0.389,4.368-0.133C153.579,193.027,155.478,193.501,155.442,193.83z"/>
				<path style="opacity:0.45;fill:#FFFFFF;" d="M153.481,198.989c-0.035,0.329-1.991,0.389-4.368,0.133
					c-2.377-0.256-4.275-0.73-4.24-1.059c0.035-0.329,1.991-0.389,4.368-0.133C151.618,198.186,153.516,198.66,153.481,198.989z"/>
				<path style="opacity:0.45;fill:#FFFFFF;" d="M151.519,204.148c-0.035,0.329-1.991,0.389-4.368,0.133
					c-2.377-0.256-4.275-0.73-4.24-1.059c0.035-0.329,1.991-0.389,4.368-0.134C149.656,203.345,151.554,203.819,151.519,204.148z"/>
				<path style="opacity:0.45;fill:#FFFFFF;" d="M149.557,209.307c-0.035,0.329-1.991,0.389-4.368,0.133
					c-2.377-0.256-4.275-0.73-4.24-1.059c0.035-0.329,1.991-0.389,4.368-0.133C147.694,208.504,149.592,208.978,149.557,209.307z"/>
			</g>
		</g>
		<g>
			<polygon style="fill:#8A6161;" points="169.499,243.919 123.838,243.919 127.802,201.916 128.152,198.273 165.2,198.273 
				165.549,201.916 166.905,216.301 168.887,237.419 			"/>
			<polygon style="fill:#A08080;" points="161.308,243.919 115.662,243.919 119.612,201.916 119.962,198.273 157.009,198.273 
				157.359,201.916 159.21,221.678 160.769,238.235 			"/>
			<polygon style="opacity:0.25;" points="165.549,201.916 119.612,201.916 119.962,198.273 165.2,198.273 			"/>
			<path style="opacity:0.25;" d="M128.954,226.24c7.186-0.779,16.299-10.389,16.299-10.389S137.958,227.366,128.954,226.24z"/>
			<path style="opacity:0.25;" d="M168.887,237.419c-1.793,0.496-4.154,0.874-7.127,0.86c-0.335,0-0.67-0.014-0.991-0.044
				c-7.506-0.321-11.251-4.008-12.155-6.325c-0.962-2.419-0.437-8.045,1.049-8.38c0.977-0.204,6.121-1.195,9.546-1.851
				c1.793-0.335,3.119-0.583,3.119-0.583s-0.262-4.416,1.705-5.786l2.871,0.991L168.887,237.419z"/>
		</g>
		<path style="fill:#EEBDB6;" d="M208.091,239.313c-11.82-2.725-36.625-7.928-36.625-7.928c-10.129,9.226-15.463,6.937-19.835,4.897
			c-4.372-2.026-3.498-6.486-3.148-7.404c0.35-0.904,7.564,0.175,10.377,0c2.827-0.175,3.031-1.778,3.031-1.778
			s-1.603,0.831-4.503,0.525c-2.9-0.306-8.482-1.253-8.817-2.507c-0.35-1.253,0.292-1.953,4.022-1.559
			c2.9,0.306,6.908-0.452,12.344-1.574c-1.078-1.822-1.603-5.32-1.064-6.5c0.627-1.37,4.066,4.358,6.194,5.451
			c8.22-1.574,34.511,1.414,34.511,1.414l-0.845-5.232l-0.671-4.227l-0.306-1.938c3.556-0.364,11.659-1.836,16.367-4.372
			c0.102,1.443,0.262,3.308,0.466,5.538c0.189,1.982,0.423,4.27,0.699,6.835c0.088,0.787,0.175,1.603,0.262,2.434
			C221.849,233.076,219.911,242.038,208.091,239.313z"/>
		<path style="fill:#B1625D;" d="M219.59,212.118c-4.052,0.685-9.765,1.253-16.527,0.772l-0.306-1.938
			c3.556-0.364,11.659-1.836,16.367-4.372C219.226,208.023,219.386,209.888,219.59,212.118z"/>
		<path style="fill:#DD9F9A;" d="M204.579,222.349l-0.845-5.232c2.026,1.355,8.715,5.873,9.152,6.485
			C213.411,224.316,208.995,222.757,204.579,222.349z"/>
		<path style="fill:#2D263C;" d="M171.466,313.86l-6.995,29.192c-6.136-29.921,3.352-53.356,3.352-53.356L171.466,313.86z"/>
		<path style="fill:#DD9F9A;" d="M208.091,239.313c-11.82-2.725-36.625-7.928-36.625-7.928c18.961,0.525,32.544,7.666,41.463,5.844
			c8.919-1.807,7.36-18.276,7.36-18.276c0.088,0.787,0.175,1.603,0.262,2.434C221.849,233.076,219.911,242.038,208.091,239.313z"/>
		
			<path style="fill:none;stroke:#2D263C;stroke-width:1.0931;stroke-linecap:round;stroke-linejoin:round;stroke-miterlimit:10;" d="
			M202.757,268.924c0,0-2.722,81.817-1.683,84.934c1.039,3.117,12.943,50.725,11.177,71.388"/>
		
			<path style="fill:none;stroke:#2D263C;stroke-width:1.0931;stroke-linecap:round;stroke-linejoin:round;stroke-miterlimit:10;" d="
			M165.833,315.157c0,0-8.742,28.012-8.828,31.928c-0.087,3.916-0.346,70.235-2.684,80.192"/>
		<path style="opacity:0.25;" d="M184.535,238.279c-13.245,11.165-36.365,14.628-36.365,14.628S170.078,254.781,184.535,238.279z"/>
		<path style="fill:#FFFFFF;" d="M190.442,153.151c-2.332,4.197-9.094,14.166-19.937,12.65c-9.983-1.385-11.893-7.477-12.199-10.668
			c0.933-0.35,1.924-0.7,2.944-1.049l25.825-1.647C188.27,152.685,189.393,152.918,190.442,153.151z"/>
		<path style="fill:#4A3636;" d="M147.049,104.056c-1.428-11.234-0.52-19.935,14.675-22.922
			c15.195-2.987,33.376-0.909,34.285,13.506c0.909,14.415-4.675,22.337-4.026,25.194c0.649,2.857-9.091,5.325-9.091,5.325
			l-12.597-0.52L147.049,104.056z"/>
		<path style="fill:#EEBDB6;" d="M187.075,152.437c-1.982,5.334-9.532,12.038-17.984,10.158c-8.438-1.88-7.841-8.511-7.841-8.511
			l1.224-0.496l2.623-1.035c0,0-0.408-1.807-0.729-4.751c-0.248-2.39-0.641-5.057-1.21-6.923l18.699-8.234
			c-0.729,1.487-1.049,3.571-1.122,5.801c-0.175,5.626,1.676,12.767,1.676,12.767l3.017,0.787L187.075,152.437z"/>
		<path style="fill:#B1625D;" d="M181.858,132.645c-0.729,1.487-1.049,3.571-1.122,5.801c-6.238,7.462-13.073,9.05-16.367,9.356
			c-0.248-2.39-0.641-5.057-1.21-6.923L181.858,132.645z"/>
		<path style="fill:#EEBDB6;" d="M196.33,123.143c-1.88,4.154-4.926,5.975-8.497,3.44c-4.999,14.224-17.154,18.961-28.711,15.332
			c-0.991-0.306-1.895-0.7-2.696-1.166c-1.72-0.976-3.046-2.23-4.066-3.658c-4.037-5.669-3.133-13.976-2.842-17.066
			c0.277-3.017-1.078-6.719-1.88-10.872c0-0.015,0-0.015,0-0.015c-0.335-1.618-0.568-3.323-0.583-5.086
			c6.879,1.108,13.889,0.394,19.675-0.904c5.771-1.297,14.283-0.845,17.329,1.487c3.061,2.346,1.88,15.39,3.439,15.201
			c1.559-0.189,2.084-5.975,5.524-6.238C196.461,113.335,198.21,118.989,196.33,123.143z"/>
		
			<path style="fill:none;stroke:#B1625D;stroke-width:0.7287;stroke-linecap:round;stroke-linejoin:round;stroke-miterlimit:10;" d="
			M161.24,121.913c-2.114,0.26-3.023,4.827-0.75,5.692c2.273,0.866,3.182-1.19,3.182-1.19"/>
		<path style="fill:#251B3C;" d="M171.853,118.865c0,1.345-0.727,2.436-1.623,2.436c-0.897,0-1.623-1.091-1.623-2.436
			c0-1.345,0.727-2.436,1.623-2.436C171.127,116.429,171.853,117.52,171.853,118.865z"/>
		<path style="fill:#251B3C;" d="M156.139,118.865c0,1.345-0.727,2.436-1.623,2.436c-0.896,0-1.623-1.091-1.623-2.436
			c0-1.345,0.727-2.436,1.623-2.436C155.413,116.429,156.139,117.52,156.139,118.865z"/>
		
			<path style="fill:none;stroke:#4A3636;stroke-width:1.0931;stroke-linecap:round;stroke-linejoin:round;stroke-miterlimit:10;" d="
			M151.659,115.095c0,0,2.987-1.429,6.104-0.325"/>
		
			<path style="fill:none;stroke:#4A3636;stroke-width:1.0931;stroke-linecap:round;stroke-linejoin:round;stroke-miterlimit:10;" d="
			M173.282,115.095c0,0-2.987-1.429-6.104-0.325"/>
		
			<path style="fill:none;stroke:#B1625D;stroke-width:0.7287;stroke-linecap:round;stroke-linejoin:round;stroke-miterlimit:10;" d="
			M193.541,118.45c-1.732,0.606-2.251,4.329-1.558,5.454"/>
		
			<path style="fill:none;stroke:#B1625D;stroke-width:0.7287;stroke-linecap:round;stroke-linejoin:round;stroke-miterlimit:10;" d="
			M163.672,134.023c0,0,4.286,1.385,8.182-1.558"/>
		<path style="fill:#DD9F9A;" d="M187.833,126.583c-4.999,14.224-17.154,18.961-28.711,15.332c-0.991-0.306-1.895-0.7-2.696-1.166
			C175.387,143.008,182.441,134.263,187.833,126.583z"/>
		<path style="fill:#DD9F9A;" d="M187.075,152.437c-1.982,5.334-9.532,12.038-17.984,10.158c-8.438-1.88-7.841-8.511-7.841-8.511
			l1.224-0.496c1.895,5.378,5.232,7.797,12.286,7.724c5.524-0.058,9.415-4.984,10.668-9.313L187.075,152.437z"/>
		<path style="fill:#F1CECA;" d="M149.518,120.024c0.277-3.017-1.078-6.719-1.88-10.872c0.845,3.673,2.405,6.179,2.915,11.266
			c0.51,5.072,0.292,11.761,1.807,16.673C148.323,131.421,149.226,123.114,149.518,120.024z"/>
	</g>
	<g>
		<path style="fill:#EEBDB6;" d="M332.912,248.276c0,0-0.029,5.451,0.262,11.659c0.379,8.847,1.428,19.209,4.139,17.343
			c4.62-3.163,1.457-14.851,2.638-17.27c1.195-2.434,11.105-19.223,10.595-23.027c-0.146-1.108-0.656-4.168-1.297-7.957
			c-1.574-9.327-3.979-23.1-3.979-23.1l-14.312,8.759l5.378,17.489L332.912,248.276z"/>
		<path style="fill:#DD9F9A;" d="M332.912,248.276c0,0-0.029,5.451,0.262,11.659l0.219,0.423c0,0,4.416-22.867,5.975-27.283
			c1.151-3.265,6.952-3.935,9.881-4.052c-1.574-9.327-3.979-23.1-3.979-23.1l-14.312,8.759l5.378,17.489L332.912,248.276z"/>
		<path style="fill:#422020;" d="M326.127,163.471c-3.377-12.987-1.104-18.478,3.214-33.979
			c4.318-15.501,12.176-42.254-5.129-50.046s-39.123-2.597-41.071,10c-8.441-0.519-11.558,13.728-7.922,30.175
			c3.636,16.447,1.688,25.938-6.234,32.816c-7.922,6.878-2.987,17.137-2.987,17.137l29.867,7.402L326.127,163.471z"/>
		<polygon style="fill:#EEBDB6;" points="281.087,429.986 278.332,423.982 281.028,415.893 281.713,413.853 266.382,408.139 
			265.9,412.279 263.758,430.656 263.19,435.582 283.01,434.198 		"/>
		<polygon style="fill:#B1625D;" points="265.9,412.279 281.028,415.893 281.713,413.853 266.382,408.139 		"/>
		<path style="fill:#DD9F9A;" d="M263.19,435.582l19.821-1.384l-1.924-4.212c-2.711,0.16-6.063-0.641-9.677,0.16
			c-2.988,0.656-5.553,1.078-7.651,0.51L263.19,435.582z"/>
		<polygon style="fill:#EEBDB6;" points="319.373,410.996 319.679,414.698 321.399,435.247 321.617,437.769 332.373,440.377 
			338.727,441.922 347.559,440.611 346.233,438.789 340.083,430.292 338.246,429.243 334.953,427.363 336.046,416.082 
			336.264,413.75 336.818,408.052 332.315,408.81 		"/>
		<path style="fill:#DD9F9A;" d="M321.399,435.247l0.219,2.521l10.756,2.609l13.685-1.006l0.175-0.583l-6.15-8.497l-1.836-1.049
			c-0.306,1.676-1.268,4.358-4.197,5.392C330.478,435.903,323.803,435.466,321.399,435.247z"/>
		<polygon style="fill:#B1625D;" points="319.373,410.996 319.679,414.698 336.046,416.082 336.264,413.75 333.014,408.883 
			332.315,408.81 		"/>
		<path style="fill:#3C344C;" d="M266.382,408.139l15.332,5.713c0,0,10.901-31.946,13.758-45.194
			c2.857-13.248,11.951-55.323,11.951-55.323l8.322,35.065c-1.312,21.045,3.629,62.596,3.629,62.596l16.877,2.857
			c0,0,5.203-51.417,4.94-70.801c-0.219-15.959-4.416-73.891-5.902-93.872c-0.32-4.299-0.51-6.835-0.51-6.835h-56.62
			c-0.452,2.142-0.874,4.285-1.239,6.427l-0.073,0.408c-4.693,26.977-3.352,54.026-2.405,100.255
			C269.5,369.955,266.382,408.139,266.382,408.139z"/>
		
			<path style="opacity:0.25;fill:none;stroke:#FFFFFF;stroke-width:1.0931;stroke-linecap:round;stroke-linejoin:round;stroke-miterlimit:10;" d="
			M286.895,245.625c0,0-5.019,92.816-6.529,102.775c-1.51,9.959-9.418,59.739-9.418,59.739"/>
		<path style="fill:#EFC351;" d="M257.214,207.498c0.058,0.16,0.743,0.393,1.807,0.641c4.256,1.006,14.676,2.507,16.964,2.827
			c0.292,0.044,0.452,0.073,0.452,0.073s1.006,5.013,1.661,11.878c0.408,4.241,0.67,9.196,0.466,14.108
			c-0.058,1.793-0.19,3.585-0.408,5.32h56.62l-2.419-31.305l13.773-3.542c0,0-4.941-26.612-9.357-38.826
			c-3.279-9.08-11.31-12.199-16.512-13.729c-1.793-0.539-3.25-0.874-4.066-1.224c-3.192-1.326-14.88,0.598-14.88,0.598l-9.867-2.857
			c-1.21,0.219-2.361,0.437-3.454,0.656c-18.203,3.629-20.214,6.398-22.823,14.734C262.403,175.683,256.865,206.609,257.214,207.498
			z"/>
		<path style="fill:#E9A450;" d="M278.099,222.917c0.408,4.241,0.67,9.196,0.466,14.108c-0.058,1.793-0.19,3.585-0.408,5.32h19.194
			c-10.974-7.01-10.319-22.852-13.394-30.649c-3.542-9.007-3.6-26.146-3.6-26.146l-3.921,25.49
			C276.438,211.04,277.443,216.053,278.099,222.917z"/>
		<path style="opacity:0.45;fill:#FFFFFF;" d="M267.741,165.795v14.855H262c-0.109,0.528-0.217,1.06-0.325,1.595h6.067V197.1h-8.865
			c-0.095,0.546-0.188,1.08-0.276,1.595h9.141v10.42c0.538,0.086,1.07,0.17,1.595,0.252v-10.672h14.855v14.855H277.2
			c0.078,0.484,0.16,1.017,0.245,1.595h6.747v14.855h-5.391c0.016,0.528,0.025,1.061,0.033,1.595h5.358v10.17h1.596v-10.17h14.855
			v10.17h1.595v-10.17h14.855v10.17h1.595v-10.17h14.855v10.17h1.457l-1.457-18.85v7.085h-14.855v-14.855h14.254l-0.123-1.595
			h-14.131v-14.855h14.855v11.518l1.596-0.41v-11.107h9.591c-0.106-0.516-0.216-1.048-0.33-1.595h-9.261v-14.855h5.919
			c-0.131-0.534-0.263-1.066-0.397-1.595h-5.522v-14.855h0.848c-0.707-1.396-1.531-2.63-2.444-3.713v2.118h-14.855V153.85
			c-0.606-0.169-1.154-0.323-1.595-0.466v10.815h-14.855v-10.57c-0.431,0.065-0.7,0.109-0.7,0.109l-0.895-0.259v10.72h-14.855
			v-12.16c-0.548,0.117-1.08,0.233-1.596,0.349v11.811h-14.855v-5.692c-0.621,0.63-1.141,1.31-1.595,2.052v3.641h-1.662
			c-0.18,0.507-0.357,1.039-0.535,1.595H267.741z M318.688,182.245h14.855V197.1h-14.855V182.245z M318.688,165.795h14.855v14.855
			h-14.855V165.795z M302.237,215.146h14.855v14.855h-14.855V215.146z M302.237,198.695h14.855v14.855h-14.855V198.695z
			 M302.237,182.245h14.855V197.1h-14.855V182.245z M302.237,165.795h14.855v14.855h-14.855V165.795z M285.787,215.146h14.855
			v14.855h-14.855V215.146z M285.787,198.695h14.855v14.855h-14.855V198.695z M285.787,182.245h14.855V197.1h-14.855V182.245z
			 M285.787,165.795h14.855v14.855h-14.855V165.795z M269.337,182.245h14.855V197.1h-14.855V182.245z M269.337,165.795h14.855
			v14.855h-14.855V165.795z"/>
		<path style="fill:#3C344C;" d="M287.995,152.116c1.02,5.771,5.028,15.551,16.862,15.653c11.907,0.102,14.749-8.453,15.405-12.825
			c-1.793-0.539-3.25-0.874-4.066-1.224c-3.192-1.326-14.88,0.598-14.88,0.598l-9.867-2.857
			C290.239,151.679,289.088,151.898,287.995,152.116z"/>
		<path style="fill:#EEBDB6;" d="M291.449,151.46c0,0,1.501,12.534,13.408,12.592c11.368,0.073,11.412-9.4,11.397-10.26
			c0-0.044,0-0.058,0-0.058l-0.058-0.015l-1.035-0.248l-2.215-0.525l0.394-3.367l0.904-7.666l-16.44-8.482l-2.58-1.326
			c0.248,0.437,0.452,0.918,0.641,1.414c0.554,1.516,0.802,3.265,0.874,5.043c0.233,5.859-1.589,12.111-1.589,12.111l-1.749,0.379
			L291.449,151.46z"/>
		<path style="fill:#B1625D;" d="M295.865,133.52c0.554,1.516,0.802,3.265,0.874,5.043c2.463,3.002,8.73,9.692,16.6,11.018
			l0.904-7.666l-16.44-8.482L295.865,133.52z"/>
		<path style="fill:#EEBDB6;" d="M285.415,127.559c5.582,2.346,5.13-2.405,5.13-2.405s4.926,20.389,22.983,17.926
			c2.376-0.321,4.387-1.006,6.063-1.953c11.12-6.209,8.453-23.698,8.453-23.698s0.423-2.376,0.787-5.582
			c0.394-3.454,0.714-7.855,0.35-11.251c-0.058-0.466-0.117-0.918-0.204-1.341c-13.437,18.757-37.135,14.283-37.135,14.283
			s0.073,0.787,0.102,1.822c0.073,2.07-0.015,5.159-1.137,4.999c-1.691-0.262-3.439-8.701-7.797-6.762
			C278.653,115.55,279.833,125.227,285.415,127.559z"/>
		<path style="fill:#DD9F9A;" d="M291.842,113.539c0,0,0.073,0.787,0.102,1.822c18.786,7.214,33.098-4.635,37.237-14.764
			c-0.058-0.466-0.117-0.918-0.204-1.341C315.54,118.013,291.842,113.539,291.842,113.539z"/>
		<g>
			
				<path style="fill:none;stroke:#B1625D;stroke-width:0.7287;stroke-linecap:round;stroke-linejoin:round;stroke-miterlimit:10;" d="
				M315.377,123.586c2.114,0.26,3.023,4.827,0.75,5.693c-2.273,0.866-3.182-1.19-3.182-1.19"/>
			<path style="fill:#251B3C;" d="M304.763,120.539c0,1.345,0.727,2.436,1.623,2.436c0.897,0,1.623-1.091,1.623-2.436
				c0-1.345-0.727-2.436-1.623-2.436C305.49,118.103,304.763,119.193,304.763,120.539z"/>
			<path style="fill:#251B3C;" d="M320.477,120.539c0,1.345,0.727,2.436,1.623,2.436c0.896,0,1.623-1.091,1.623-2.436
				c0-1.345-0.727-2.436-1.623-2.436C321.204,118.103,320.477,119.193,320.477,120.539z"/>
			
				<path style="fill:none;stroke:#422020;stroke-width:1.0931;stroke-linecap:round;stroke-linejoin:round;stroke-miterlimit:10;" d="
				M324.958,116.768c0,0-2.987-1.428-6.104-0.325"/>
			
				<path style="fill:none;stroke:#422020;stroke-width:1.0931;stroke-linecap:round;stroke-linejoin:round;stroke-miterlimit:10;" d="
				M303.335,116.768c0,0,2.987-1.428,6.104-0.325"/>
		</g>
		<path style="fill:#FFFFFF;" d="M315.199,133.385l-8.961-0.844c0,0-0.26,3.831,3.961,4.48
			C314.42,137.67,315.199,133.385,315.199,133.385z"/>
		
			<path style="fill:none;stroke:#B1625D;stroke-width:0.7287;stroke-linecap:round;stroke-linejoin:round;stroke-miterlimit:10;" d="
			M283.963,117.67c2.857,0.043,4.719,7.056,2.035,6.926"/>
		<path style="fill:#DD9F9A;" d="M291.449,151.46c0,0,1.501,12.534,13.408,12.592c11.368,0.073,11.412-9.4,11.397-10.26
			l-0.058-0.073l-1.035-0.248c-0.219,2.448-1.632,9.065-10.391,9.138c-8.001,0.058-10.581-7.608-11.368-11.557L291.449,151.46z"/>
		<path style="fill:#F1CECA;" d="M319.591,141.128c11.12-6.209,8.453-23.698,8.453-23.698s0.423-2.376,0.787-5.582
			c-1.093,3.177-2.652,3.906-2.273,7.462C326.966,123.129,324.095,135.021,319.591,141.128z"/>
		<g>
			<path style="fill:#422222;" d="M314.359,206.609l0.335,3.833l0.816,9.561l9.255-0.321l7.156-1.778l0.277-0.86l0.714-8.395
				C327.695,209.028,320.262,204.233,314.359,206.609z"/>
			
				<polyline style="opacity:0.66;fill:none;stroke:#FFFFFF;stroke-width:1.2409;stroke-linecap:round;stroke-miterlimit:10;" points="
				315.199,181.262 322.62,185.549 324.211,217.117 			"/>
			<path style="fill:#563232;" d="M314.694,210.442l1.079,12.577c0.058,0.772,0.7,1.355,1.472,1.355h12.971
				c0.758,0,1.399-0.583,1.472-1.355l1.414-16.6c-4.27-0.306-6.821,2.769-10.931,4.576
				C319.679,212.089,316.924,211.447,314.694,210.442z"/>
			<path style="fill:none;stroke:#FFFFFF;stroke-width:1.2409;stroke-miterlimit:10;" d="M313.179,192.836l1.181,13.773l0.335,3.833
				l0.816,9.561l0.262,3.017c0.058,0.772,0.7,1.355,1.472,1.355h12.971c0.758,0,1.399-0.583,1.472-1.355l0.51-5.975l0.714-8.395
				l0.189-2.23l1.166-13.583H313.179z"/>
			<path style="fill:#3C344C;" d="M313.449,194.269h20.55c0.575,0,1.04-0.466,1.04-1.04v-0.774c0-0.575-0.466-1.04-1.04-1.04h-20.55
				c-0.574,0-1.04,0.466-1.04,1.04v0.774C312.409,193.803,312.875,194.269,313.449,194.269z"/>
			
				<line style="opacity:0.25;fill:none;stroke:#FFFFFF;stroke-width:1.2409;stroke-linecap:round;stroke-miterlimit:10;" x1="330.961" y1="197.171" x2="329.893" y2="210.996"/>
		</g>
		<path style="fill:#3C344C;" d="M369.048,228.145h-58.181c-0.897,0-1.623-0.727-1.623-1.623l0,0c0-0.896,0.727-1.623,1.623-1.623
			h58.181c0.897,0,1.623,0.727,1.623,1.623l0,0C370.672,227.418,369.945,228.145,369.048,228.145z"/>
		<path style="fill:#EEBDB6;" d="M265.084,238.541c3.017,0,8.045-0.641,13.481-1.516c11.411-1.836,24.616-4.678,24.703-4.678
			c0.131,0,4.547,1.516,9.736,1.472c5.203-0.044,7.578-2.303,9.837-2.507c2.244-0.219,6.311-3.381,6.311-3.381h-16.877
			c-1.049,0-1.705-1.137-1.181-2.04c0.16-0.277,0.321-0.525,0.437-0.685c0.044-0.058,0.146-0.117,0.277-0.16
			c0.044-0.015,0.087-0.029,0.146-0.044c1.516-0.379,6.296-0.058,5.99-1.268c-0.35-1.384-5.582-2.725-8.657-2.478
			c-3.075,0.262-7.622,3.95-7.622,3.95s-8.701-0.699-17.358-1.734c-2.652-0.321-4.664-0.481-6.209-0.554
			c-3.483-0.175-4.445,0.117-4.445,0.117l1.108-5.713l0.816-4.256l0.408-2.099c-2.288-0.321-12.708-1.822-16.964-2.827
			c-0.189,1.268-0.437,2.929-0.714,4.926c-0.321,2.215-0.7,4.853-1.108,7.812C255.888,230.306,255.742,238.541,265.084,238.541z"/>
		<path style="fill:#B1625D;" d="M258.307,213.065h17.27l0.408-2.099c-2.288-0.321-12.708-1.822-16.964-2.827
			C258.832,209.407,258.584,211.068,258.307,213.065z"/>
		<path style="fill:#DD9F9A;" d="M267.139,225.934c0.306,1.764,3.017-1.297,6.515-2.9l1.108-5.713
			C273.027,218.851,266.892,224.433,267.139,225.934z"/>
		<path style="fill:#DD9F9A;" d="M308.85,228.572c0.714,1.064,11.63-0.146,15.624-0.641h-12.198c-1.049,0-1.705-1.137-1.181-2.04
			c0.16-0.277,0.321-0.525,0.437-0.685c0.044-0.058,0.146-0.117,0.277-0.16C309.244,225.628,308.034,227.333,308.85,228.572z"/>
		<g>
			<path style="fill:#C75467;" d="M332.344,215.514v2.856c0,0.729,0.583,1.312,1.297,1.312h30.518c0.714,0,1.297-0.583,1.297-1.312
				v-2.856c0-0.714-0.583-1.297-1.297-1.297h-30.518C332.927,214.217,332.344,214.799,332.344,215.514z"/>
			<path style="fill:#A1384F;" d="M332.344,215.514v1.093c0,0.714,0.583,1.297,1.297,1.297h30.518c0.714,0,1.297-0.583,1.297-1.297
				v-1.093c0-0.714-0.583-1.297-1.297-1.297h-30.518C332.927,214.217,332.344,214.799,332.344,215.514z"/>
			<path style="fill:#90E6A8;" d="M330.959,214.683c0.699,0.029,0.976-0.292,1.078-0.466c-0.175,0.423-0.7,1.763,0.277,1.516
				c1.151-0.277,2.711-1.326,2.711-1.326c0,0.219,0.044,2.303,1.603,1.851c1.647-0.481,2.725-1.603,2.725-1.603l0.904,1.647
				l4.984-1.924c0,0,0.466,1.953,2.376,1.618c1.909-0.321,3.119-1.603,3.119-1.603s0.131,1.545,0.539,1.195
				c0.408-0.35,2.988-1.297,2.988-1.297s-0.087,3.964,1.647,3.585c1.297-0.277,1.647-1.72,1.749-2.419
				c0,0.423,0.117,1.035,0.802,0.874c1.049-0.262,1.253-0.962,1.253-0.962s0.918,2.405,2.769,1.734
				c1.865-0.67,2.069-1.997,2.069-1.997l2.288,1.224c0,0,0.058-0.889-0.087-1.895c-0.131-0.904-0.437-1.909-1.079-2.434
				l-32.602-1.006c0,0-0.67,0.801-1.283,1.647c-0.014,0-0.014,0-0.014,0C331.076,213.619,330.449,214.654,330.959,214.683z"/>
			<path style="fill:#7CCCA5;" d="M332.315,213.896c1.151-0.277,2.711-1.326,2.711-1.326c0,0.219,0.044,2.288,1.603,1.836
				c1.647-0.466,2.725-1.589,2.725-1.589l0.904,1.632l4.984-1.924c0,0,0.466,1.953,2.376,1.632c1.909-0.335,3.119-1.603,3.119-1.603
				s0.131,1.53,0.539,1.18c0.408-0.335,2.988-1.297,2.988-1.297s-0.087,3.964,1.647,3.6c1.297-0.277,1.647-1.72,1.749-2.419
				c0,0.423,0.117,1.035,0.802,0.86c1.049-0.262,1.253-0.947,1.253-0.947s0.918,2.39,2.769,1.72c1.865-0.67,2.069-1.982,2.069-1.982
				l2.201,1.166c-0.131-0.904-0.437-1.909-1.079-2.434l-32.602-1.006c0,0-0.67,0.801-1.283,1.647
				c0.131-0.102,0.204-0.204,0.248-0.277C331.863,212.788,331.338,214.129,332.315,213.896z"/>
			<path style="fill:#DD9F9A;" d="M336.162,213.138c6.238,0.014,29.338,0.481,29.921-0.947c0.131-0.335,0.19-0.685,0.204-1.02
				c0.029-1.151-0.496-2.215-0.496-2.215c-3.818-6.515-9.794-9.007-17.008-8.978c-7.214,0.029-14.079,3.352-16.352,7.229
				c-0.583,0.991-1.035,1.865-1.268,2.609C330.449,212.001,331.513,213.124,336.162,213.138z"/>
			<path style="fill:#DD9F9A;" d="M331.921,220.746v2.346c0,1.006,0.802,1.807,1.807,1.807h30.343c0.991,0,1.807-0.802,1.807-1.807
				v-2.346c0-0.583-0.495-1.064-1.078-1.064H333C332.402,219.682,331.921,220.163,331.921,220.746z"/>
			<path style="fill:#C17976;" d="M336.162,213.138c6.238,0.014,29.338,0.481,29.921-0.947c0.131-0.335,0.19-0.685,0.204-1.02
				c-9.211,1.909-26.088,1.734-35.124-1.355C330.449,212.001,331.513,213.124,336.162,213.138z"/>
			<path style="fill:#C17976;" d="M331.921,220.746v0.35c7.273,1.676,27.895-0.918,33.958-0.044v-0.306
				c0-0.583-0.495-1.064-1.078-1.064H333C332.402,219.682,331.921,220.163,331.921,220.746z"/>
			<path style="fill:#EFC4C3;" d="M350.115,207.712c0,0.236,0.191,0.427,0.427,0.427c0.236,0,0.427-0.191,0.427-0.427
				s-0.191-0.427-0.427-0.427C350.306,207.286,350.115,207.477,350.115,207.712z"/>
			<path style="fill:#EFC4C3;" d="M342.184,202.984c0,0.236,0.191,0.427,0.427,0.427s0.427-0.191,0.427-0.427
				c0-0.236-0.191-0.427-0.427-0.427S342.184,202.749,342.184,202.984z"/>
			<path style="fill:#EFC4C3;" d="M353.427,203.838c0,0.236,0.191,0.427,0.427,0.427c0.236,0,0.427-0.191,0.427-0.427
				s-0.191-0.427-0.427-0.427C353.618,203.411,353.427,203.602,353.427,203.838z"/>
			<circle style="fill:#EFC4C3;" cx="348.197" cy="202.215" r="0.427"/>
			<circle style="fill:#EFC4C3;" cx="345.704" cy="205.921" r="0.427"/>
		</g>
		<path style="fill:#3C344C;" d="M363.442,445.392c1.125-2.965-10.13-7.553-14.805-10.064c-4.675-2.511-8.831-5.714-9.264-5.108
			c-0.433,0.606-1.645,6.887-1.645,6.887h-16.017l-1.212,8.285H363.442z"/>
		<path style="fill:#3C344C;" d="M291.582,445.392c4.415,0-5.714-13.744-13.117-14.523s-12.987,5.155-14.545,3.941
			c-1.558-1.214-8.441,10.582,1.299,10.582C274.959,445.392,291.582,445.392,291.582,445.392z"/>
		<polygon style="fill:#2D263C;" points="307.422,313.335 315.744,348.4 314.359,268.928 		"/>
		<path style="fill:#2D263C;" d="M276.846,249.18h58.442c-0.32-4.299-0.51-6.835-0.51-6.835h-56.62l-1.239,6.427L276.846,249.18z"/>
		
			<path style="opacity:0.25;fill:none;stroke:#FFFFFF;stroke-width:1.0931;stroke-linecap:round;stroke-linejoin:round;stroke-miterlimit:10;" d="
			M310.156,295.835c0,0,11.209,48.667,10.343,52.565c-0.866,3.899,3.137,61.876,3.137,61.876"/>
	</g>
	<g>
		<path style="fill:#EEBDB6;" d="M468.38,436.136c0,0,3.6-11.062,2.857-14.268c-6.646-15.186-13.554-46.389-18.057-69.169
			c-3.061-15.507-5.014-27.108-5.014-27.108l18.393-13.466l9.4-6.879c0.204,1.151,0.364,2.652,0.496,4.387
			c0.393,5.64,0.393,13.831,0.277,21.22c-0.16,9.415-0.525,17.547-0.525,17.547c5.698,13.875,6.821,64.724,10.289,88.785
			L468.38,436.136z"/>
		<path style="fill:#DD9F9A;" d="M476.731,330.853c-11.237,4.97-19.311,15.303-23.552,21.847
			c-3.061-15.507-5.014-27.108-5.014-27.108l18.393-13.466l9.896-2.492C476.848,315.273,476.848,323.464,476.731,330.853z"/>
		<path style="fill:#EEBDB6;" d="M441.899,349.595c0.627,6.048,0.772,13.131,0.452,21.453c-0.612,16.469-3.002,37.791-6.966,65.613
			h-18.043l-1.982-2.973l6.267-6.704c0,0-1.676-55.629-4.474-70.699c-1.21-6.558-1.661-13.831-1.764-19.937
			c-0.131-7.928,0.277-13.918,0.277-13.918l30.708-1.297L441.899,349.595z"/>
		<path style="fill:#DD9F9A;" d="M441.899,349.595c0.627,6.048,0.772,13.131,0.452,21.453c-2.244-11.674-8.701-27.574-26.962-34.701
			c-0.131-7.928,0.277-13.918,0.277-13.918l30.708-1.297L441.899,349.595z"/>
		<path style="fill:#E3A29B;" d="M416.919,191.758c-1.166,3.541-0.845,6.515-0.087,9.458l-11.047,19.063l-0.437,0.189l-9.75,0.627
			c0,0,12.607-48.532,19.5-55.76l5.392,13.146C420.49,178.481,419.513,183.815,416.919,191.758z"/>
		<path style="fill:#C83F78;" d="M489.221,318.145c0,5.582-56.562,25.68-84.092,8.744c-7.447-39.277,13.277-87.255,13.277-87.255
			s1.982-18.349,1.355-26.569c-0.335-4.562-1.982-8.176-2.929-11.849c-0.758-2.944-1.078-5.917,0.087-9.458
			c0.67-2.07,1.239-3.95,1.705-5.626c1.326-4.707,1.005-9.735-0.845-14.268l-2.682-6.529c4.358-4.605,11.557-8.059,15.492-9.721
			c1.691-0.714,2.769-1.093,2.769-1.093s1.181-0.233,3.119-0.991c3.702-1.472,10.872-3.716,22.983-1.851
			c1.458,0.219,2.842,0.496,4.139,0.802c7.491,1.691,12.548,4.445,15.725,6.806c3.308,2.434,4.62,4.46,4.62,4.46
			s-0.554,9.036-7.987,21.803c-7.447,12.767-6.456,50.98,0.612,64.141c3.09,5.757,5.917,18.524,8.089,31.538
			C487.458,297.93,489.221,315.011,489.221,318.145z"/>
		<path style="fill:#AF1D60;" d="M466.777,243.729c1.734-17.358-5.961-32.617-5.961-32.617s8.191-7.069,6.894-17.984
			c-1.224-10.26,2.317-21.307,11.615-33.841c3.308,2.434,4.62,4.46,4.62,4.46s-0.554,9.036-7.987,21.803
			c-7.447,12.767-6.456,50.98,0.612,64.141c3.09,5.757,5.917,18.524,8.089,31.538C476.775,268.753,465.524,256.205,466.777,243.729z
			"/>
		<g>
			<defs>
				<path id="SVGID_1_" d="M489.221,318.145c0,5.582-56.562,25.68-84.092,8.744c-7.447-39.277,13.277-87.255,13.277-87.255
					s1.982-18.349,1.355-26.569c-0.335-4.562-1.982-8.176-2.929-11.849c-0.758-2.944-1.078-5.917,0.087-9.458
					c0.675-2.066,1.24-3.956,1.707-5.621c1.324-4.718,1.008-9.74-0.852-14.274l-2.678-6.527c4.358-4.605,11.557-8.059,15.492-9.721
					c1.691-0.714,2.769-1.093,2.769-1.093s1.181-0.233,3.119-0.991c3.702-1.472,10.872-3.716,22.983-1.851
					c1.458,0.219,2.842,0.496,4.139,0.802c15.244,3.439,20.345,11.266,20.345,11.266s-0.554,9.036-7.987,21.803
					c-7.447,12.767-6.456,50.98,0.612,64.141C483.639,262.836,489.221,312.563,489.221,318.145z"/>
			</defs>
			<clipPath id="SVGID_00000139975290955240361660000004151814044922206357_">
				<use xlink:href="#SVGID_1_"  style="overflow:visible;"/>
			</clipPath>
			<g style="clip-path:url(#SVGID_00000139975290955240361660000004151814044922206357_);">
				<g>
					<circle style="fill:#DE569D;" cx="403.552" cy="164.053" r="1.491"/>
					<circle style="fill:#DE569D;" cx="414.498" cy="164.053" r="1.491"/>
					<circle style="fill:#DE569D;" cx="425.444" cy="164.053" r="1.491"/>
					<circle style="fill:#DE569D;" cx="436.39" cy="164.053" r="1.491"/>
					<circle style="fill:#DE569D;" cx="447.337" cy="164.053" r="1.491"/>
					<circle style="fill:#DE569D;" cx="458.283" cy="164.053" r="1.491"/>
					<circle style="fill:#DE569D;" cx="469.229" cy="164.053" r="1.491"/>
					<circle style="fill:#DE569D;" cx="480.175" cy="164.053" r="1.491"/>
					<circle style="fill:#DE569D;" cx="491.121" cy="164.053" r="1.491"/>
				</g>
				<g>
					<circle style="fill:#DE569D;" cx="403.552" cy="175.639" r="1.491"/>
					<circle style="fill:#DE569D;" cx="414.498" cy="175.639" r="1.491"/>
					<circle style="fill:#DE569D;" cx="425.444" cy="175.639" r="1.491"/>
					<circle style="fill:#DE569D;" cx="436.39" cy="175.639" r="1.491"/>
					<circle style="fill:#DE569D;" cx="447.337" cy="175.639" r="1.491"/>
					<circle style="fill:#DE569D;" cx="458.283" cy="175.639" r="1.491"/>
					<circle style="fill:#DE569D;" cx="469.229" cy="175.639" r="1.491"/>
					<circle style="fill:#DE569D;" cx="480.175" cy="175.639" r="1.491"/>
					<circle style="fill:#DE569D;" cx="491.121" cy="175.639" r="1.491"/>
				</g>
				<g>
					<circle style="fill:#DE569D;" cx="403.552" cy="187.225" r="1.491"/>
					<circle style="fill:#DE569D;" cx="414.498" cy="187.225" r="1.491"/>
					<circle style="fill:#DE569D;" cx="425.444" cy="187.225" r="1.491"/>
					<circle style="fill:#DE569D;" cx="436.39" cy="187.225" r="1.491"/>
					<circle style="fill:#DE569D;" cx="447.337" cy="187.225" r="1.491"/>
					<circle style="fill:#DE569D;" cx="458.283" cy="187.225" r="1.491"/>
					<circle style="fill:#DE569D;" cx="469.229" cy="187.225" r="1.491"/>
					<circle style="fill:#DE569D;" cx="480.175" cy="187.225" r="1.491"/>
					<circle style="fill:#DE569D;" cx="491.121" cy="187.225" r="1.491"/>
				</g>
				<g>
					<circle style="fill:#DE569D;" cx="403.552" cy="198.811" r="1.491"/>
					<circle style="fill:#DE569D;" cx="414.498" cy="198.811" r="1.491"/>
					<circle style="fill:#DE569D;" cx="425.444" cy="198.811" r="1.491"/>
					<circle style="fill:#DE569D;" cx="436.39" cy="198.811" r="1.491"/>
					<circle style="fill:#DE569D;" cx="447.337" cy="198.811" r="1.491"/>
					<circle style="fill:#DE569D;" cx="458.283" cy="198.811" r="1.491"/>
					<circle style="fill:#DE569D;" cx="469.229" cy="198.811" r="1.491"/>
					<circle style="fill:#DE569D;" cx="480.175" cy="198.811" r="1.491"/>
					<circle style="fill:#DE569D;" cx="491.121" cy="198.811" r="1.491"/>
				</g>
				<g>
					<circle style="fill:#DE569D;" cx="403.552" cy="210.397" r="1.491"/>
					<circle style="fill:#DE569D;" cx="414.498" cy="210.397" r="1.491"/>
					<circle style="fill:#DE569D;" cx="425.444" cy="210.397" r="1.491"/>
					<circle style="fill:#DE569D;" cx="436.39" cy="210.397" r="1.491"/>
					<circle style="fill:#DE569D;" cx="447.337" cy="210.397" r="1.491"/>
					<circle style="fill:#DE569D;" cx="458.283" cy="210.397" r="1.491"/>
					<circle style="fill:#DE569D;" cx="469.229" cy="210.397" r="1.491"/>
					<circle style="fill:#DE569D;" cx="480.175" cy="210.397" r="1.491"/>
					<circle style="fill:#DE569D;" cx="491.121" cy="210.397" r="1.491"/>
				</g>
				<g>
					<circle style="fill:#DE569D;" cx="403.552" cy="221.983" r="1.491"/>
					<circle style="fill:#DE569D;" cx="414.498" cy="221.983" r="1.491"/>
					<circle style="fill:#DE569D;" cx="425.444" cy="221.983" r="1.491"/>
					<circle style="fill:#DE569D;" cx="436.39" cy="221.983" r="1.491"/>
					<circle style="fill:#DE569D;" cx="447.337" cy="221.983" r="1.491"/>
					<circle style="fill:#DE569D;" cx="458.283" cy="221.983" r="1.491"/>
					<circle style="fill:#DE569D;" cx="469.229" cy="221.983" r="1.491"/>
					<circle style="fill:#DE569D;" cx="480.175" cy="221.983" r="1.491"/>
					<circle style="fill:#DE569D;" cx="491.121" cy="221.983" r="1.491"/>
				</g>
				<g>
					<circle style="fill:#DE569D;" cx="403.552" cy="233.569" r="1.491"/>
					<circle style="fill:#DE569D;" cx="414.498" cy="233.569" r="1.491"/>
					<circle style="fill:#DE569D;" cx="425.444" cy="233.569" r="1.491"/>
					<circle style="fill:#DE569D;" cx="436.39" cy="233.569" r="1.491"/>
					<circle style="fill:#DE569D;" cx="447.337" cy="233.569" r="1.491"/>
					<circle style="fill:#DE569D;" cx="458.283" cy="233.569" r="1.491"/>
					<circle style="fill:#DE569D;" cx="469.229" cy="233.569" r="1.491"/>
					<circle style="fill:#DE569D;" cx="480.175" cy="233.569" r="1.491"/>
					<circle style="fill:#DE569D;" cx="491.121" cy="233.569" r="1.491"/>
				</g>
				<g>
					<circle style="fill:#DE569D;" cx="403.552" cy="245.155" r="1.491"/>
					<circle style="fill:#DE569D;" cx="414.498" cy="245.155" r="1.491"/>
					<circle style="fill:#DE569D;" cx="425.444" cy="245.155" r="1.491"/>
					<circle style="fill:#DE569D;" cx="436.39" cy="245.155" r="1.491"/>
					<circle style="fill:#DE569D;" cx="447.337" cy="245.155" r="1.491"/>
					<circle style="fill:#DE569D;" cx="458.283" cy="245.155" r="1.491"/>
					<circle style="fill:#DE569D;" cx="469.229" cy="245.155" r="1.491"/>
					<circle style="fill:#DE569D;" cx="480.175" cy="245.155" r="1.491"/>
					<circle style="fill:#DE569D;" cx="491.121" cy="245.155" r="1.491"/>
				</g>
				<g>
					<path style="fill:#DE569D;" d="M405.043,256.741c0,0.824-0.668,1.491-1.491,1.491s-1.491-0.668-1.491-1.491
						c0-0.824,0.668-1.491,1.491-1.491S405.043,255.917,405.043,256.741z"/>
					<path style="fill:#DE569D;" d="M415.989,256.741c0,0.824-0.668,1.491-1.491,1.491s-1.491-0.668-1.491-1.491
						c0-0.824,0.668-1.491,1.491-1.491S415.989,255.917,415.989,256.741z"/>
					<path style="fill:#DE569D;" d="M426.935,256.741c0,0.824-0.668,1.491-1.491,1.491c-0.824,0-1.491-0.668-1.491-1.491
						c0-0.824,0.668-1.491,1.491-1.491C426.268,255.25,426.935,255.917,426.935,256.741z"/>
					<path style="fill:#DE569D;" d="M437.882,256.741c0,0.824-0.668,1.491-1.491,1.491c-0.824,0-1.491-0.668-1.491-1.491
						c0-0.824,0.668-1.491,1.491-1.491C437.214,255.25,437.882,255.917,437.882,256.741z"/>
					<path style="fill:#DE569D;" d="M448.828,256.741c0,0.824-0.668,1.491-1.491,1.491s-1.491-0.668-1.491-1.491
						c0-0.824,0.668-1.491,1.491-1.491S448.828,255.917,448.828,256.741z"/>
					<path style="fill:#DE569D;" d="M459.774,256.741c0,0.824-0.668,1.491-1.491,1.491s-1.491-0.668-1.491-1.491
						c0-0.824,0.668-1.491,1.491-1.491S459.774,255.917,459.774,256.741z"/>
					<path style="fill:#DE569D;" d="M470.72,256.741c0,0.824-0.668,1.491-1.491,1.491s-1.491-0.668-1.491-1.491
						c0-0.824,0.668-1.491,1.491-1.491S470.72,255.917,470.72,256.741z"/>
					<path style="fill:#DE569D;" d="M481.667,256.741c0,0.824-0.668,1.491-1.491,1.491c-0.824,0-1.491-0.668-1.491-1.491
						c0-0.824,0.668-1.491,1.491-1.491C480.999,255.25,481.667,255.917,481.667,256.741z"/>
					<path style="fill:#DE569D;" d="M492.613,256.741c0,0.824-0.668,1.491-1.491,1.491c-0.824,0-1.491-0.668-1.491-1.491
						c0-0.824,0.668-1.491,1.491-1.491C491.945,255.25,492.613,255.917,492.613,256.741z"/>
				</g>
				<g>
					<circle style="fill:#DE569D;" cx="403.552" cy="268.327" r="1.491"/>
					<circle style="fill:#DE569D;" cx="414.498" cy="268.327" r="1.491"/>
					<circle style="fill:#DE569D;" cx="425.444" cy="268.327" r="1.491"/>
					<circle style="fill:#DE569D;" cx="436.39" cy="268.327" r="1.491"/>
					<circle style="fill:#DE569D;" cx="447.337" cy="268.327" r="1.491"/>
					<circle style="fill:#DE569D;" cx="458.283" cy="268.327" r="1.491"/>
					<circle style="fill:#DE569D;" cx="469.229" cy="268.327" r="1.491"/>
					<circle style="fill:#DE569D;" cx="480.175" cy="268.327" r="1.491"/>
					<circle style="fill:#DE569D;" cx="491.121" cy="268.327" r="1.491"/>
				</g>
				<g>
					<circle style="fill:#DE569D;" cx="403.552" cy="279.913" r="1.491"/>
					<circle style="fill:#DE569D;" cx="414.498" cy="279.913" r="1.491"/>
					<circle style="fill:#DE569D;" cx="425.444" cy="279.913" r="1.491"/>
					<circle style="fill:#DE569D;" cx="436.39" cy="279.913" r="1.491"/>
					<circle style="fill:#DE569D;" cx="447.337" cy="279.913" r="1.491"/>
					<circle style="fill:#DE569D;" cx="458.283" cy="279.913" r="1.491"/>
					<circle style="fill:#DE569D;" cx="469.229" cy="279.913" r="1.491"/>
					<circle style="fill:#DE569D;" cx="480.175" cy="279.913" r="1.491"/>
					<circle style="fill:#DE569D;" cx="491.121" cy="279.913" r="1.491"/>
				</g>
				<g>
					<circle style="fill:#DE569D;" cx="403.552" cy="291.499" r="1.491"/>
					<circle style="fill:#DE569D;" cx="414.498" cy="291.499" r="1.491"/>
					<circle style="fill:#DE569D;" cx="425.444" cy="291.499" r="1.491"/>
					<circle style="fill:#DE569D;" cx="436.39" cy="291.499" r="1.491"/>
					<circle style="fill:#DE569D;" cx="447.337" cy="291.499" r="1.491"/>
					<circle style="fill:#DE569D;" cx="458.283" cy="291.499" r="1.491"/>
					<circle style="fill:#DE569D;" cx="469.229" cy="291.499" r="1.491"/>
					<circle style="fill:#DE569D;" cx="480.175" cy="291.499" r="1.491"/>
					<circle style="fill:#DE569D;" cx="491.121" cy="291.499" r="1.491"/>
				</g>
				<g>
					<circle style="fill:#DE569D;" cx="403.552" cy="303.085" r="1.491"/>
					<circle style="fill:#DE569D;" cx="414.498" cy="303.085" r="1.491"/>
					<circle style="fill:#DE569D;" cx="425.444" cy="303.085" r="1.491"/>
					<circle style="fill:#DE569D;" cx="436.39" cy="303.085" r="1.491"/>
					<circle style="fill:#DE569D;" cx="447.337" cy="303.085" r="1.491"/>
					<circle style="fill:#DE569D;" cx="458.283" cy="303.085" r="1.491"/>
					<circle style="fill:#DE569D;" cx="469.229" cy="303.085" r="1.491"/>
					<circle style="fill:#DE569D;" cx="480.175" cy="303.085" r="1.491"/>
					<circle style="fill:#DE569D;" cx="491.121" cy="303.085" r="1.491"/>
				</g>
				<g>
					<circle style="fill:#DE569D;" cx="403.552" cy="314.671" r="1.491"/>
					<circle style="fill:#DE569D;" cx="414.498" cy="314.671" r="1.491"/>
					<circle style="fill:#DE569D;" cx="425.444" cy="314.671" r="1.491"/>
					<circle style="fill:#DE569D;" cx="436.39" cy="314.671" r="1.491"/>
					<circle style="fill:#DE569D;" cx="447.337" cy="314.671" r="1.491"/>
					<circle style="fill:#DE569D;" cx="458.283" cy="314.671" r="1.491"/>
					<circle style="fill:#DE569D;" cx="469.229" cy="314.671" r="1.491"/>
					<circle style="fill:#DE569D;" cx="480.175" cy="314.671" r="1.491"/>
					<circle style="fill:#DE569D;" cx="491.121" cy="314.671" r="1.491"/>
				</g>
				<g>
					<circle style="fill:#DE569D;" cx="403.552" cy="326.257" r="1.491"/>
					<circle style="fill:#DE569D;" cx="414.498" cy="326.257" r="1.491"/>
					<circle style="fill:#DE569D;" cx="425.444" cy="326.257" r="1.491"/>
					<circle style="fill:#DE569D;" cx="436.39" cy="326.257" r="1.491"/>
					<circle style="fill:#DE569D;" cx="447.337" cy="326.257" r="1.491"/>
					<circle style="fill:#DE569D;" cx="458.283" cy="326.257" r="1.491"/>
					<circle style="fill:#DE569D;" cx="469.229" cy="326.257" r="1.491"/>
					<circle style="fill:#DE569D;" cx="480.175" cy="326.257" r="1.491"/>
					<circle style="fill:#DE569D;" cx="491.121" cy="326.257" r="1.491"/>
				</g>
			</g>
		</g>
		<path style="fill:#3C344C;" d="M463.6,152.481c-3.002,4.97-9.998,13.977-20.943,13.321c-11.368-0.7-12.301-7.098-12.067-10.187
			c1.691-0.714,2.769-1.093,2.769-1.093s1.181-0.233,3.119-0.991c3.702-1.472,10.872-3.716,22.983-1.851
			C460.918,151.898,462.303,152.175,463.6,152.481z"/>
		<path style="fill:#7A2828;" d="M481.322,87.291v0.277c0,6.602-5.349,11.951-11.951,11.951c-3.192,0-6.106-1.253-8.249-3.308
			c-2.274-2.172-3.702-5.232-3.702-8.642c0-1.312,0.219-2.58,0.612-3.76c0.408-1.253,1.02-2.419,1.807-3.454
			c2.186-2.871,5.64-4.737,9.531-4.737C475.886,75.617,481.176,80.82,481.322,87.291z"/>
		<path style="fill:#601919;" d="M481.322,87.291v0.277c0,6.602-5.349,11.951-11.951,11.951c-3.192,0-6.106-1.253-8.249-3.308
			l-3.09-12.403c0.408-1.253,1.02-2.419,1.807-3.454c3.352,1.224,8.992,3.745,13.772,8.307
			C476.717,91.619,479.617,90.322,481.322,87.291z"/>
		<path style="fill:#974141;" d="M473.132,109.021c-2.784,20.098-20.899,30.708-25.796,28.944c-0.831-0.306-2.07-1.268-3.556-2.667
			c-7.243-6.821-20.316-23.858-20.316-23.858c-7.724-4.926-11.353-20.826-5.407-26.044c5.961-5.203,9.779-1.399,9.779-1.399
			s6.602-10.595,22.605-6.966c12.679,2.886,21.278,8.672,22.896,20.972C473.758,101.224,473.714,104.867,473.132,109.021z"/>
		<path style="fill:#7A2828;" d="M473.132,109.021c-2.784,20.098-20.899,30.708-25.796,28.944c-0.831-0.306-2.07-1.268-3.556-2.667
			l-17.227-30.955c21.847,8.759,42.396,3.294,46.783-6.34C473.758,101.224,473.714,104.867,473.132,109.021z"/>
		<path style="fill:#EEBDB6;" d="M459.461,151.679c0,0-9.4,12.33-18.101,10.741c-8.701-1.574-8.001-7.899-8.001-7.899l0.962-0.423
			l2.9-1.297c0,0,0-1.457-0.087-3.483c-0.102-2.725-0.35-6.486-0.933-9.123l18.844-7.36c-0.496,1.355-0.772,3.177-0.918,5.13
			c-0.394,5.699,0.393,12.548,0.393,12.548l2.944,0.7L459.461,151.679z"/>
		<path style="fill:#B1625D;" d="M455.045,132.835c-0.496,1.355-0.772,3.177-0.918,5.13c-2.827,3.716-7.404,11.251-16.993,11.353
			c-0.102-2.725-0.35-6.486-0.933-9.123L455.045,132.835z"/>
		<path style="fill:#EEBDB6;" d="M467.185,127.078c-5.538,1.851-6.515-1.822-6.515-1.822s-8.263,19.209-23.129,17.154
			c-0.175-0.015-0.35-0.044-0.539-0.073c-15.186-2.609-14.88-19.107-14.691-24.441c0.19-5.232-2.682-9.561-1.545-16.993
			c0.015-0.146,0.029-0.291,0.058-0.437c0.102,0.073,0.189,0.146,0.291,0.219c17.664,13.364,37.558,12.767,37.558,12.767
			s0.015,0.131,0.029,0.364c0.131,1.399,0.641,6.223,1.632,4.416c1.166-2.084,4.941-5.946,8.293-5.159
			C471.965,113.859,472.709,125.213,467.185,127.078z"/>
		<path style="fill:#F1CECA;" d="M437.542,142.41c-0.175-0.015-0.35-0.044-0.539-0.073c-15.186-2.609-14.88-19.107-14.691-24.441
			c0.19-5.232-2.682-9.561-1.545-16.993c0.496,8.074,3.877,13.233,4.227,20.404C425.285,127.544,425.868,137.863,437.542,142.41z"/>
		<path style="fill:#DD9F9A;" d="M458.703,113.816c-13.962,7.885-32.806-5.407-37.587-13.131
			c17.664,13.364,37.558,12.767,37.558,12.767S458.689,113.582,458.703,113.816z"/>
		
			<path style="fill:none;stroke:#B1625D;stroke-width:0.7287;stroke-linecap:round;stroke-linejoin:round;stroke-miterlimit:10;" d="
			M467.458,118.33c-2.233,0.372-3.721,3.287-1.737,5.147"/>
		<g>
			
				<path style="fill:none;stroke:#B1625D;stroke-width:0.7287;stroke-linecap:round;stroke-linejoin:round;stroke-miterlimit:10;" d="
				M435.294,122.346c-2.114,0.26-3.023,4.827-0.75,5.693c2.273,0.866,3.182-1.19,3.182-1.19"/>
			<path style="fill:#251B3C;" d="M445.979,120.702c0,1.345-0.727,2.436-1.623,2.436c-0.897,0-1.623-1.09-1.623-2.436
				c0-1.345,0.727-2.436,1.623-2.436C445.253,118.266,445.979,119.357,445.979,120.702z"/>
			<path style="fill:#251B3C;" d="M430.389,120.515c0,1.345-0.727,2.436-1.623,2.436c-0.896,0-1.623-1.09-1.623-2.436
				c0-1.345,0.727-2.436,1.623-2.436C429.662,118.079,430.389,119.169,430.389,120.515z"/>
			<path style="fill:none;stroke:#974141;stroke-width:1.0931;stroke-linecap:round;stroke-miterlimit:10;" d="M425.714,110.442
				c0,0,2.987-1.429,6.104-0.325"/>
		</g>
		<path style="fill:#601919;" d="M447.102,133.826c-0.918,1.355-2.434,2.711-4.605,3.133c-0.918,0.189-1.866,0.131-2.769-0.087
			c-3.454-0.831-6.136-3.964-3.148-4.037c6.136-0.146,10.945-2.915,11.528-2.23C448.414,130.955,448.093,132.398,447.102,133.826z"
			/>
		<path style="fill:#EEBDB6;" d="M425.858,184.323c-11.052-0.689-13.564,6.225-15.518,12.21
			c-1.954,5.986-18.19,24.379-16.096,30.917c3.256,10.161,11.723,11.907,16.096,2.977c4.372-8.931,8-31.344,11.814-37.3
			C425.969,187.169,425.858,184.323,425.858,184.323z"/>
		<g>
			<path style="fill:#C75467;" d="M449.604,198.825v2.856c0,0.729-0.583,1.312-1.297,1.312h-30.518
				c-0.714,0-1.297-0.583-1.297-1.312v-2.856c0-0.714,0.583-1.297,1.297-1.297h30.518
				C449.021,197.527,449.604,198.11,449.604,198.825z"/>
			<path style="fill:#A1384F;" d="M449.604,198.825v1.093c0,0.714-0.583,1.297-1.297,1.297h-30.518
				c-0.714,0-1.297-0.583-1.297-1.297v-1.093c0-0.714,0.583-1.297,1.297-1.297h30.518
				C449.021,197.527,449.604,198.11,449.604,198.825z"/>
			<path style="fill:#90E6A8;" d="M450.989,197.994c-0.7,0.029-0.977-0.292-1.078-0.466c0.175,0.423,0.7,1.763-0.277,1.516
				c-1.151-0.277-2.711-1.326-2.711-1.326c0,0.219-0.044,2.303-1.603,1.851c-1.647-0.481-2.725-1.603-2.725-1.603l-0.904,1.647
				l-4.984-1.924c0,0-0.466,1.953-2.376,1.618c-1.909-0.321-3.119-1.603-3.119-1.603s-0.131,1.545-0.539,1.195
				c-0.408-0.35-2.988-1.297-2.988-1.297s0.087,3.964-1.647,3.585c-1.297-0.277-1.647-1.72-1.749-2.419
				c0,0.423-0.117,1.035-0.802,0.874c-1.049-0.262-1.253-0.962-1.253-0.962s-0.918,2.405-2.769,1.734
				c-1.865-0.671-2.069-1.997-2.069-1.997l-2.288,1.224c0,0-0.058-0.889,0.087-1.895c0.131-0.904,0.437-1.909,1.079-2.434
				l32.602-1.006c0,0,0.67,0.802,1.283,1.647c0.014,0,0.014,0,0.014,0C450.872,196.93,451.499,197.965,450.989,197.994z"/>
			<path style="fill:#7CCCA5;" d="M449.633,197.207c-1.151-0.277-2.711-1.326-2.711-1.326c0,0.219-0.044,2.288-1.603,1.836
				c-1.647-0.466-2.725-1.589-2.725-1.589l-0.904,1.632l-4.984-1.924c0,0-0.466,1.953-2.376,1.632
				c-1.909-0.335-3.119-1.603-3.119-1.603s-0.131,1.53-0.539,1.18c-0.408-0.335-2.988-1.297-2.988-1.297s0.087,3.964-1.647,3.6
				c-1.297-0.277-1.647-1.72-1.749-2.419c0,0.423-0.117,1.035-0.802,0.86c-1.049-0.262-1.253-0.947-1.253-0.947
				s-0.918,2.39-2.769,1.72c-1.865-0.67-2.069-1.982-2.069-1.982l-2.201,1.166c0.131-0.904,0.437-1.909,1.079-2.434l32.602-1.006
				c0,0,0.67,0.802,1.283,1.647c-0.131-0.102-0.204-0.204-0.248-0.277C450.085,196.099,450.61,197.44,449.633,197.207z"/>
			<path style="fill:#DD9F9A;" d="M445.786,196.449c-6.238,0.014-29.338,0.481-29.921-0.947c-0.131-0.335-0.189-0.685-0.204-1.02
				c-0.029-1.151,0.495-2.215,0.495-2.215c3.818-6.515,9.794-9.007,17.008-8.978s14.079,3.352,16.352,7.229
				c0.583,0.991,1.035,1.865,1.268,2.609C451.499,195.312,450.435,196.434,445.786,196.449z"/>
			<path style="fill:#DD9F9A;" d="M450.027,204.057v2.346c0,1.006-0.802,1.807-1.807,1.807h-30.343
				c-0.991,0-1.807-0.802-1.807-1.807v-2.346c0-0.583,0.496-1.064,1.078-1.064h31.801
				C449.546,202.993,450.027,203.474,450.027,204.057z"/>
			<path style="fill:#C17976;" d="M445.786,196.449c-6.238,0.014-29.338,0.481-29.921-0.947c-0.131-0.335-0.189-0.685-0.204-1.02
				c9.211,1.909,26.088,1.734,35.124-1.355C451.499,195.312,450.435,196.434,445.786,196.449z"/>
			<path style="fill:#C17976;" d="M450.027,204.057v0.35c-7.273,1.676-27.895-0.918-33.958-0.044v-0.306
				c0-0.583,0.496-1.064,1.078-1.064h31.801C449.546,202.993,450.027,203.474,450.027,204.057z"/>
			<circle style="fill:#EFC4C3;" cx="431.406" cy="191.023" r="0.427"/>
			<path style="fill:#EFC4C3;" d="M439.764,186.295c0,0.236-0.191,0.427-0.427,0.427c-0.236,0-0.427-0.191-0.427-0.427
				s0.191-0.427,0.427-0.427C439.573,185.868,439.764,186.06,439.764,186.295z"/>
			<path style="fill:#EFC4C3;" d="M428.521,187.149c0,0.236-0.191,0.427-0.427,0.427c-0.236,0-0.427-0.191-0.427-0.427
				s0.191-0.427,0.427-0.427C428.33,186.722,428.521,186.913,428.521,187.149z"/>
			<path style="fill:#EFC4C3;" d="M434.177,185.525c0,0.236-0.191,0.427-0.427,0.427s-0.427-0.191-0.427-0.427
				s0.191-0.427,0.427-0.427S434.177,185.29,434.177,185.525z"/>
			<path style="fill:#EFC4C3;" d="M436.671,189.232c0,0.236-0.191,0.427-0.427,0.427c-0.236,0-0.427-0.191-0.427-0.427
				s0.191-0.427,0.427-0.427C436.479,188.805,436.671,188.996,436.671,189.232z"/>
		</g>
		<path style="fill:#EEBDB6;" d="M482.532,237.958c-9.488-2.23-32.325-30.329-34.512-33.958c-2.186-3.614-1.122-8.176-1.632-12.184
			c-0.51-3.993-4.562-5.757-4.285-6.733c0.292-0.976,3.454-2.011,6.85-1.166c7.87,1.938,5.115,14.88,7.622,17.299
			c2.507,2.419,19.442,14.049,19.442,14.049l-1.326-7.987l-3.017-18.145l-1.151-6.894c3.133-13.088,9.444-17.737,12.053-19.15
			c0.569-0.306,1.254,0.029,1.37,0.656c0,0.029,0.015,0.058,0.015,0.102c1.253,7.185,7.389,42.454,8.89,54.303
			C494.526,231.356,492.02,240.188,482.532,237.958z"/>
		<path style="fill:#DD9F9A;" d="M459.461,151.679c0,0-9.4,12.33-18.101,10.741c-8.701-1.574-8.001-7.899-8.001-7.899l0.962-0.423
			c0.277,2.055,1.574,6.791,7.768,6.937c6.267,0.131,12.869-6.864,15.376-9.823L459.461,151.679z"/>
		<path style="fill:#E3A29B;" d="M484.82,221.591c-0.991,0-8.803-6.325-8.803-6.325l-1.326-7.987
			C478.699,212.54,485.519,221.591,484.82,221.591z"/>
		<path style="fill:#C83F78;" d="M435.385,436.661l-0.15,6.436c-0.03,1.275-1.072,2.294-2.348,2.294h-34.752
			c-1.566,0-2.063-2.113-0.66-2.81l17.885-8.893l1.982,2.973H435.385z"/>
		<path style="fill:#C83F78;" d="M468.559,435.587c-4.078,4.427-6.435,9.805-2.528,9.805c3.907,0,3.907,0,3.907,0l0,0
			c0,0,17.489,1.22,17.861-0.001s0.434-6.555-1.923-9.036C483.521,433.875,473.506,430.974,468.559,435.587z"/>
		<path style="fill:#AF1D60;" d="M456.791,233.569c-13.086,21.323-30.933,26.789-30.933,26.789S446.683,261.115,456.791,233.569z"/>
		<path style="fill:#E3A29B;" d="M483.96,163.848c-5.815,4.474-10.828,17.227-12.286,25.286l-1.151-6.894
			c3.133-13.088,9.444-17.737,12.053-19.15c0.569-0.306,1.254,0.029,1.37,0.656C483.945,163.776,483.96,163.805,483.96,163.848z"/>
		<path style="fill:#C83F78;" d="M447.102,133.826c-0.918,1.355-2.434,2.711-4.605,3.133c-0.918,0.189-1.866,0.131-2.769-0.087
			c0.568-2.157,2.521-3.746,4.853-3.746C445.499,133.126,446.359,133.374,447.102,133.826z"/>
		<g>
			<circle style="fill:none;stroke:#3C344C;stroke-width:1.0931;stroke-miterlimit:10;" cx="428.571" cy="119.012" r="6.287"/>
			<circle style="fill:none;stroke:#3C344C;stroke-width:1.0931;stroke-miterlimit:10;" cx="443.415" cy="119.012" r="6.287"/>
			
				<line style="fill:none;stroke:#3C344C;stroke-width:1.0931;stroke-miterlimit:10;" x1="434.858" y1="118.563" x2="437.128" y2="118.563"/>
			
				<line style="fill:none;stroke:#3C344C;stroke-width:1.0931;stroke-miterlimit:10;" x1="448.647" y1="115.529" x2="461.876" y2="115.529"/>
		</g>
	</g>
	<g>
		<path style="fill:#C83F78;" d="M612.381,426.184l23.125,15.503c1.661,1.113,0.873,3.705-1.127,3.705h-35.434
			c-1.63,0-2.896-1.421-2.707-3.04l1.879-16.167"/>
		<path style="fill:#C83F78;" d="M552.845,426.184l11.624,14.516c1.513,1.89,0.168,4.691-2.254,4.691h-22.806
			c-1.63,0-2.896-1.421-2.707-3.04l1.879-16.167"/>
		<path style="fill:#3C344C;" d="M535.577,424.856c0.452,0.437,0.977,0.831,1.545,1.151c0.758,0.466,1.603,0.831,2.521,1.137
			c6.85,2.245,17.052,0.598,17.052,0.598s0.525-2.099,1.399-5.553c0.67-2.624,1.53-6.034,2.507-9.896
			c0.714-2.798,1.472-5.844,2.274-8.992c0.204-0.831,0.423-1.661,0.627-2.507c1.56-6.165,3.192-12.607,4.664-18.451
			c0.219-0.86,0.423-1.69,0.627-2.521c2.303-9.109,4.11-16.294,4.46-17.766c0.044-0.175,0.087-0.394,0.146-0.685
			c0.116-0.597,0.277-1.457,0.466-2.521c0.7-4.052,1.807-11.076,2.929-18.451c0.131-0.831,0.262-1.661,0.393-2.507
			c0.656-4.27,1.312-8.555,1.88-12.359c1.151-7.593,1.997-13.335,1.997-13.335l0.51,1.749l0.86,2.973l0.743,2.507l2.827,9.721
			l2.551,8.744l0.729,2.507l1.647,5.684c-0.51,3.148-0.627,7.549-0.466,12.767c0.015,0.816,0.044,1.661,0.088,2.521
			c0.233,5.538,0.714,11.834,1.282,18.451c0.073,0.831,0.146,1.676,0.233,2.521c0.539,6.048,1.137,12.315,1.691,18.451
			c0.073,0.831,0.146,1.676,0.219,2.507c0.787,8.876,1.443,17.372,1.603,24.441h20.083c-0.641-3.002-0.321-12.665,0.291-24.441
			c0.044-0.831,0.087-1.661,0.146-2.507c0.321-5.902,0.699-12.228,1.078-18.451c0.044-0.845,0.102-1.69,0.146-2.521
			c0.393-6.573,0.758-12.942,1.006-18.451c0.029-0.86,0.073-1.705,0.102-2.521c0.16-3.877,0.248-7.229,0.219-9.808
			c-0.029-2.113-0.16-5.072-0.379-8.643c-0.044-0.801-0.102-1.632-0.16-2.507c-0.35-5.29-0.86-11.659-1.443-18.465
			c-0.073-0.831-0.146-1.661-0.219-2.507c-0.525-6.019-1.093-12.301-1.676-18.451c-0.073-0.845-0.16-1.691-0.233-2.521
			c-0.627-6.544-1.239-12.869-1.793-18.451c-0.088-0.86-0.16-1.691-0.262-2.507c-0.175-1.836-0.35-3.585-0.51-5.218
			c-0.802-7.885-1.341-13.015-1.341-13.015s-3.177-0.627-8.089-1.399c-0.802-0.131-1.647-0.262-2.521-0.408
			c-5.203-0.773-11.776-1.647-18.451-2.172c-0.831-0.073-1.676-0.131-2.507-0.189c-6.646-0.437-13.219-0.51-18.465,0.189
			c-0.874,0.131-1.705,0.262-2.507,0.423c-4.416,0.918-7.52,2.551-8.293,5.232c-0.641,2.215-1.093,6.223-1.399,11.339
			c-0.102,1.632-0.19,3.381-0.248,5.218c-0.044,0.816-0.073,1.647-0.102,2.507c-0.175,5.64-0.248,11.98-0.248,18.451
			c0,0.831,0,1.676,0.014,2.521c0,6.267,0.073,12.592,0.175,18.451c0.015,0.845,0.029,1.676,0.058,2.507
			c0.131,7.447,0.306,13.977,0.437,18.465c0.029,0.933,0.058,1.763,0.088,2.507c0.073,2.419,0.117,3.804,0.117,3.804
			c-1.268,3.425-2.478,8.511-3.629,14.647c-0.146,0.816-0.306,1.661-0.466,2.521c-0.977,5.553-1.938,11.834-2.871,18.451
			c-0.131,0.831-0.248,1.676-0.35,2.521c-0.597,4.168-1.166,8.438-1.734,12.723c-0.845,6.398-1.676,12.825-2.521,18.932
			C536.612,417.758,536.102,421.402,535.577,424.856z"/>
		<polygon style="fill:#2D263C;" points="581.063,312.198 586.004,329.148 586.834,288.005 		"/>
		<path style="fill:#2D263C;" d="M548.403,269.773h63.572c-0.802-7.885-1.341-13.015-1.341-13.015s-57.101-11.164-60.832,1.676
			C549.16,260.65,548.709,264.658,548.403,269.773z"/>
		<path style="opacity:0.45;fill:#FFFFFF;" d="M537.122,413.998v12.009c0.758,0.466,1.603,0.831,2.521,1.137v-23.843h18.451v18.888
			c0.67-2.624,1.53-6.034,2.507-9.896v-8.992h2.274c0.204-0.831,0.423-1.661,0.627-2.507h-2.9v-18.451h7.564
			c0.219-0.86,0.423-1.69,0.627-2.521h-8.191v-18.451h12.796c0.116-0.597,0.277-1.457,0.466-2.521h-13.262v-18.451h16.192
			c0.131-0.831,0.262-1.661,0.393-2.507h-16.585v-18.465h18.465v6.107c1.151-7.593,1.997-13.335,1.997-13.335l0.51,1.749v-15.478
			h18.451v18.451h-17.591l0.743,2.507h16.848v18.465h-11.47l0.729,2.507h10.741v18.451h-9.561c0.015,0.816,0.044,1.661,0.088,2.521
			h9.473v18.451h-8.191c0.073,0.831,0.146,1.676,0.233,2.521h7.957v18.451h-6.267c0.073,0.831,0.146,1.676,0.219,2.507h6.048v24.441
			h2.521v-24.441h13.408c0.044-0.831,0.087-1.661,0.146-2.507h-13.554v-18.451h14.632c0.044-0.845,0.102-1.69,0.146-2.521h-14.778
			v-18.451h15.784c0.029-0.86,0.073-1.705,0.102-2.521h-15.886v-18.451h15.725c-0.044-0.801-0.102-1.632-0.16-2.507h-15.565v-18.465
			h14.122c-0.073-0.831-0.146-1.661-0.219-2.507h-13.904v-18.451h12.228c-0.073-0.845-0.16-1.691-0.233-2.521h-11.995v-18.451
			h10.202c-0.088-0.86-0.16-1.691-0.262-2.507h-9.939v-19.631c-0.802-0.131-1.647-0.262-2.521-0.408v20.039h-18.451V252.78
			c-0.831-0.073-1.676-0.131-2.507-0.189v22.4h-18.465V252.78c-0.874,0.131-1.705,0.262-2.507,0.423v21.788h-9.939
			c-0.044,0.816-0.073,1.647-0.102,2.507h10.042v18.451h-10.289c0,0.831,0,1.676,0.014,2.521h10.275v18.451h-10.1
			c0.015,0.845,0.029,1.676,0.058,2.507h10.042v18.465h-9.604c0.029,0.933,0.058,1.763,0.088,2.507h9.517v18.451h-13.029
			c-0.146,0.816-0.306,1.661-0.466,2.521h13.496v18.451h-16.367c-0.131,0.831-0.248,1.676-0.35,2.521h16.716v18.451h-18.451v-5.728
			C538.798,401.465,537.968,407.892,537.122,413.998z M581.573,277.497h18.451v18.451h-18.451V277.497z M560.601,298.469h18.465
			v18.451h-18.465V298.469z M560.601,277.497h18.465v18.451h-18.465V277.497z"/>
		<polygon style="fill:#FFFFFF;" points="564.376,260.358 601.088,260.358 601.088,259.353 592.227,162.785 591.6,155.964 
			566.183,152.932 566.052,160.613 		"/>
		<path style="fill:#D6E0FA;" d="M566.883,211.826c9.901,16.274,26.303,19.251,26.303,19.251s-10.572,4.713-29.426-14.388
			C564.008,229.961,581,238.302,581,238.302s-9.179,2.202-17.241-7.473C555.697,221.155,566.883,211.826,566.883,211.826z"/>
		<path style="fill:#3C344C;" d="M566.052,160.613c3.235,3.571,7.681,6.383,13.627,6.34c6.034-0.044,9.969-1.88,12.548-4.168
			l-0.627-6.821l-25.417-3.031L566.052,160.613z"/>
		<path style="fill:#73A0FB;" d="M591.28,155.104l0.51,3.979l5.83,105.24c0,0,22.08-0.627,22.328-1.487
			c0.248-0.874-10.027-49.056-10.027-49.056l0.335-0.131l16.206-5.917c0,0-1.778-6.835-4.125-14.968
			c-2.026-7.141-4.489-15.288-6.558-20.724c-1.589-4.168-5.101-7.491-8.963-10.042C599.878,157.363,591.28,155.104,591.28,155.104z"
			/>
		<path style="opacity:0.25;" d="M604.076,181.469l6.179,32.18l16.206-5.917c0,0-1.778-6.835-4.125-14.968
			C611.887,191.933,604.076,181.469,604.076,181.469z"/>
		<path style="opacity:0.25;" d="M606.409,161.872c-6.937-4.634-15.026-6.762-15.026-6.762l0.204,3.891
			C596.95,159.759,602.051,160.736,606.409,161.872z"/>
		<path style="fill:#EEBDB6;" d="M566.183,152.932c0,0,6.5,9.983,15.682,9.051c7.17-0.714,9.196-4.43,9.735-6.019
			c0.16-0.452,0.19-0.729,0.19-0.729l-3.6-2.303c0,0,0.015-1.064,0.16-2.755c0.219-2.303,0.7-5.742,1.764-9.153l-15.828-8.336
			l-4.766-2.507c0.67,1.079,1.122,2.565,1.399,4.227c0.175,0.933,0.291,1.938,0.364,2.958c0.466,6.529-0.641,14.166-0.641,14.166
			l-3.308,1.035L566.183,152.932z"/>
		<path style="fill:#B1625D;" d="M570.92,134.409c0.175,0.933,0.291,1.938,0.364,2.958c2.958,3.76,9.721,11.353,17.066,12.811
			c0.219-2.303,0.7-5.742,1.764-9.153l-15.828-8.336l-0.67-0.16L570.92,134.409z"/>
		<path style="fill:#974141;" d="M550.618,104.226c1.705,9.386,8.045,21.438,12.301,25.082c5.859,5.028,10.887,2.142,10.887,2.142
			l30.052-21.672c2.361-2.478,4.227-5.363,5.524-8.336c3.133-7.141,2.973-14.836-1.618-18.655c-6.515-5.392-13.029,0-13.029,0
			s-3.716-5.013-17.023-4.824c-13.306,0.175-17.576,13.117-17.576,13.117s-5.305-3.818-9.123,4.183
			C549.962,97.464,549.948,100.655,550.618,104.226z"/>
		<path style="fill:#7A2828;" d="M550.618,104.226c1.705,9.386,8.045,21.438,12.301,25.082c5.859,5.028,10.887,2.142,10.887,2.142
			l30.052-21.672c2.361-2.478,4.227-5.363,5.524-8.336c-3.192-0.015-5.188-1.093-5.188-1.093S572.785,115.856,550.618,104.226z"/>
		<path style="fill:#EEBDB6;" d="M604.195,100.345c2.853,8.062-0.682,12.59-0.496,17.613c0.186,5.023,2.791,22.822-13.21,25.303
			s-24.869-12.838-25.055-17.303c-2.729,4.465-8.93,1.054-11.039-5.334c-2.109-6.388,4.403-8.434,6.822-6.76
			c2.419,1.674,3.535,6.202,4.341,6.14c0.806-0.062,0.62-9.365,0.62-9.365S588.505,110.578,604.195,100.345z"/>
		<path style="fill:#DD9F9A;" d="M566.183,152.932c0,0,6.5,9.983,15.682,9.051c7.17-0.714,9.196-4.43,9.735-6.019
			c-3.163,2.769-12.344,8.613-24.266-3.396L566.183,152.932z"/>
		
			<path style="fill:none;stroke:#B1625D;stroke-width:0.7287;stroke-linecap:round;stroke-linejoin:round;stroke-miterlimit:10;" d="
			M558.513,118.727c1.814,0,3.535,2.93,2.326,4.837"/>
		<g>
			
				<path style="fill:none;stroke:#B1625D;stroke-width:0.7287;stroke-linecap:round;stroke-linejoin:round;stroke-miterlimit:10;" d="
				M590.296,122.824c2.114,0.26,3.023,4.827,0.75,5.692c-2.273,0.866-3.182-1.19-3.182-1.19"/>
			<path style="fill:#251B3C;" d="M579.683,119.777c0,1.345,0.727,2.436,1.623,2.436s1.623-1.09,1.623-2.436
				c0-1.345-0.727-2.436-1.623-2.436S579.683,118.431,579.683,119.777z"/>
			<path style="fill:#251B3C;" d="M595.397,119.777c0,1.345,0.727,2.436,1.623,2.436c0.897,0,1.623-1.09,1.623-2.436
				c0-1.345-0.727-2.436-1.623-2.436C596.124,117.341,595.397,118.431,595.397,119.777z"/>
			
				<path style="fill:none;stroke:#974141;stroke-width:1.0931;stroke-linecap:round;stroke-linejoin:round;stroke-miterlimit:10;" d="
				M599.877,116.006c0,0-2.987-1.429-6.104-0.325"/>
			
				<path style="fill:none;stroke:#974141;stroke-width:1.0931;stroke-linecap:round;stroke-linejoin:round;stroke-miterlimit:10;" d="
				M578.254,116.006c0,0,2.987-1.429,6.104-0.325"/>
		</g>
		
			<path style="fill:none;stroke:#B1625D;stroke-width:0.7287;stroke-linecap:round;stroke-linejoin:round;stroke-miterlimit:10;" d="
			M586.458,134.33c0,0-3.689,1.694-6.775-2.06"/>
		<path style="fill:#90E6A8;" d="M606.835,150.08c9.207-4.077,5.205-12.731,5.205-12.731S606.146,139.564,606.835,150.08z"/>
		<path style="fill:#7CCCA5;" d="M607.888,149.174c-7.878,0.082-7.834-7.378-7.834-7.378S604.969,141.462,607.888,149.174z"/>
		<path style="fill:#D64C4C;" d="M605.314,177.592c8.584,1.239,14.37-3.891,16.702-10.333c1.545-4.212,1.589-8.992-0.029-12.927
			c-4.081-9.954-14.968-5.494-14.968-5.494s-4.926-1.297-10.421,1.341c-1.705,0.816-2.886,3.571-3.279,7.025
			C592.475,164.927,595.506,176.178,605.314,177.592z"/>
		<path style="fill:#B92E56;" d="M605.314,177.592c8.584,1.239,14.37-3.891,16.702-10.333c-3.862-1.326-6.238-8.861-6.238-8.861
			l-8.876,1.545c0,0-8.176,13.904-13.583-2.74C592.475,164.927,595.506,176.178,605.314,177.592z"/>
		<path style="fill:#EEBDB6;" d="M602.968,183.698c0,0,2.332,18.786,7.651,31.888c0.015,0,0.015,0,0.015,0.015
			c1.997,4.926,4.416,9.05,7.287,11.076c2.594,1.822,6.267,1.195,8.293-1.253c2.813-3.396,3.323-7.651,2.055-12.592
			c-1.064-4.183-3.41-8.846-6.719-13.918c-8.147-12.49-9.808-18.465-9.808-18.465s7.01-6.238,5.859-12.665
			c-1.137-6.442-1.589-10.26-3.177-10.129c-1.589,0.131,0,10.129-0.189,10.756c-0.189,0.641-2.492,4.707-2.492,3.818
			c0-0.889,1.72-2.667,1.53-5.597c-0.19-2.929-1.02-8.161-2.157-8.978c-1.151-0.831-4.518,0.641-5.028,4.97
			c-0.51,4.329,0.321,7.506-2.04,10.945C601.685,177.009,602.968,183.698,602.968,183.698z"/>
		<path style="fill:#73A0FB;" d="M531.759,198.608c0,0,0.146,0.16,0.408,0.452c1.734,1.924,8.774,9.444,14.56,11.441
			c0.437,0.16,0.86,0.277,1.283,0.364c0,0-0.277,10.668-0.51,22.473c-0.204,9.954-0.364,20.71-0.321,26.569
			c0.015,2.711,0.073,4.372,0.204,4.416c0.117,0.044,0.758,0.087,1.734,0.131c5.203,0.277,20.112,0.598,20.229-0.131
			c0.102-0.802,0.015-83.626-2.463-106.799c-0.219-2.011-0.452-3.571-0.7-4.591c-13.962,1.487-19.048,2.215-23.26,10.042
			c-0.699,1.283-1.457,3.104-2.259,5.261C536.612,179.18,531.759,198.608,531.759,198.608z"/>
		<path style="opacity:0.25;" d="M540.664,168.235c1.982-2.39,4.634-4.868,8.118-7.025c3.775-2.332,10.391-3.439,18.101-3.687
			c-0.219-2.011-0.452-3.571-0.7-4.591c-13.962,1.487-19.048,2.215-23.26,10.042C542.223,164.257,541.465,166.078,540.664,168.235z"
			/>
		<path style="opacity:0.25;" d="M552.294,214.435c-1.632-8.103,3.352-23.683,4.183-26.19l-8.467,22.619
			c0,0-0.277,10.668-0.51,22.473C550.195,227.829,553.372,219.784,552.294,214.435z"/>
		<path style="fill:#EEBDB6;" d="M525.157,230.146c0.087,7.812,6.792,18.699,16.921,38.33c0.933,17.023,6.427,22.881,10.246,22.328
			c-3.352-5.961-3.542-11.543-3.542-11.543s3.163,10.333,5.218,11.076c2.04,0.743-4.664-10.697-2.988-19.019
			c3.352,3.163,7.171,0.874,4.882-0.292c-1.647-0.831-5.043-4.591-6.777-6.573c-0.656-0.758-1.078-1.253-1.078-1.253
			c-0.277-1.122-0.568-2.215-0.86-3.294c-4.27-15.755-9.648-26.321-9.648-26.321l8.672-21.759l0.525-1.326
			c-5.786-1.997-12.825-9.517-14.56-11.441c-0.262,0.875-0.874,2.929-1.632,5.626C528.392,212.264,525.099,224.856,525.157,230.146z
			"/>
		<path style="fill:#B1625D;" d="M530.535,204.685c4.008,3.148,9.517,6.413,15.667,7.141l0.525-1.326
			c-5.786-1.997-12.825-9.517-14.56-11.441C531.905,199.934,531.293,201.989,530.535,204.685z"/>
		<path style="fill:#DD9F9A;" d="M610.634,215.601c1.997,4.926,4.416,9.05,7.287,11.076c2.594,1.822,6.267,1.195,8.293-1.253
			c2.813-3.396,3.323-7.651,2.055-12.592C625.354,221.081,619.16,223.85,610.634,215.601z"/>
		<path style="fill:#E07070;" d="M617.668,151.308c2.405,1.847,3.861,4.977,2.744,5.349c-1.116,0.372-2.047-1.954-3.396-3.302
			C615.668,152.005,616.722,150.581,617.668,151.308z"/>
	</g>
</g>
</svg>
